<?xml version="1.0" encoding="UTF-8" standalone="no"?>
<!-- Created with Inkscape (http://www.inkscape.org/) -->

<svg
   width="70mm"
   height="23.16mm"
   viewBox="0 0 70 23.160001"
   version="1.1"
   id="svg1"
   xml:space="preserve"
   inkscape:version="1.4.4 (dcaf3e7d9e, 2026-05-05)"
   sodipodi:docname="260601 rev 02.1 Logo.svg"
   xmlns:inkscape="http://www.inkscape.org/namespaces/inkscape"
   xmlns:sodipodi="http://sodipodi.sourceforge.net/DTD/sodipodi-0.dtd"
   xmlns="http://www.w3.org/2000/svg"
   xmlns:svg="http://www.w3.org/2000/svg"><sodipodi:namedview
     id="namedview1"
     pagecolor="#ffffff"
     bordercolor="#cccccc"
     borderopacity="1"
     inkscape:showpageshadow="0"
     inkscape:pageopacity="1"
     inkscape:pagecheckerboard="0"
     inkscape:deskcolor="#d1d1d1"
     inkscape:document-units="mm"
     inkscape:zoom="2"
     inkscape:cx="119.25"
     inkscape:cy="84.75"
     inkscape:window-width="1920"
     inkscape:window-height="1011"
     inkscape:window-x="0"
     inkscape:window-y="0"
     inkscape:window-maximized="1"
     inkscape:current-layer="g117"
     showguides="true" /><defs
     id="defs1" /><g
     inkscape:label="hw logo"
     inkscape:groupmode="layer"
     id="g117"
     style="display:inline"><g
       id="g2"
       transform="translate(-0.99999269,-1.0865004)"><g
         id="g1"
         inkscape:label="Globe"
         transform="matrix(0.15358669,0,0,0.15358669,-6.1158101,-11.099869)"><path
           id="path3"
           style="fill:#8ef135;fill-opacity:1;fill-rule:evenodd;stroke:none;stroke-width:0.0352777"
           d="m 85.126372,109.86662 c 0.693914,0.50588 0.34925,0.39934 0.819504,0.91369 0.767996,-0.42192 1.750129,-0.74048 2.677935,-0.91652 -0.270227,-0.88758 -1.413227,-1.16416 -0.600427,-2.67582 0.238829,-0.44485 0.572204,-0.62723 0.859367,-1.05939 0.328787,-0.4953 0.338667,-0.79304 0.651227,-1.27282 0.935215,0.0194 0.905581,-0.006 1.326444,0.54293 1.213204,-0.83397 1.212498,-0.73907 3.468864,-0.94369 -0.105833,1.06187 -0.0046,0.82586 -1.278466,1.95792 0.320675,1.06539 0.244123,1.03011 1.338085,1.36102 0.935567,0.28257 1.32715,0.51294 2.307521,0.56303 0.138994,-0.98531 0.429329,-0.77964 -0.09102,-1.57233 -0.373592,-0.56903 -0.807508,-0.74259 -0.612775,-1.57021 0.244475,-1.03893 1.581502,-1.65559 1.086202,-2.9143 -0.42686,-1.08514 -1.631598,-1.49578 -1.297165,-3.027538 0.453321,-2.076097 1.002242,-0.924631 -0.02681,-3.322108 -0.85866,0.03351 -1.111956,0.344663 -2.03976,0.481894 0.130879,-1.175456 -0.188383,-2.728383 -1.127125,-3.231444 -0.642763,-0.344311 -0.448029,0.09278 -1.125008,-0.454025 -0.466373,0.698147 -1.537759,1.52153 -2.168173,1.969205 -0.962025,0.683683 -0.930982,1.533878 -1.93675,2.469797 -1.091848,1.016353 -1.41464,0.939447 -2.83351,1.586442 -1.1303,0.515055 -1.236488,1.429107 -2.198159,2.093387 0.189087,-1.057632 1.551869,-1.602673 0.836435,-2.174526 l -1.434041,2.239076 c -0.42418,0.66993 -0.164394,0.45685 -0.782884,0.64876 -0.388868,-0.80751 0.3018,-1.700739 0.787117,-2.342089 0.890058,-1.175455 0.989542,-0.821266 0.861483,-2.785886 l -0.348191,0.668867 c -0.11571,0.32138 0.04833,0.261408 -0.146757,0.62865 -0.484362,-0.537633 -0.245533,-0.370064 -0.259643,-1.197681 -0.02294,-1.353961 -0.143227,-0.818797 -0.276932,-1.534936 2.11314,-2.045052 1.54164,-2.933347 6.498521,-4.412544 2.024592,-0.604308 -0.115358,-0.219781 3.268134,-0.892528 l -0.770821,1.032581 c 2.904066,-0.176036 0.3937,-0.741892 4.078816,-2.015067 1.799521,-0.621594 2.217563,-1.985786 4.587523,-1.62948 -0.200025,0.610305 -0.253648,0.716138 -0.832556,1.04528 l 0.427566,0.487539 c 0.236009,0.644878 -1.056568,1.076678 -1.485545,1.229431 L 95.9697,90.592603 c -0.106185,0.658636 -0.747184,2.537178 0.700616,3.309761 1.280936,0.684036 2.213682,-0.776111 2.932288,-1.39065 0.540456,-0.462491 1.522946,-0.471311 2.323396,-0.936978 -0.56233,-2.460272 0.0938,-1.551163 0.2346,-2.505074 0.121,-0.81915 -0.3369,-1.9431 0.33373,-2.832453 0.52458,-0.694972 3.92536,-1.637595 5.1823,-1.666522 0.036,0.04551 0.0727,0.06668 0.0885,0.14993 0.11077,0.591961 0.6664,0.765175 1.07315,0.892175 l 0.64523,0.220839 c -0.15064,1.122539 -0.94474,1.892653 -1.34267,2.756253 -0.40182,0.872772 -0.002,0.653344 -0.77647,1.320094 -0.41768,0.359481 -0.74259,0.590903 -0.91933,1.183922 -0.24801,0.830439 -0.59832,4.18077 1.07808,4.996745 0.43039,0.20955 1.08585,0.508705 1.49966,0.624064 0.93133,-0.546453 1.49684,-1.566334 2.15018,-2.066925 1.61396,-1.237192 0.629,-0.750006 1.4351,-1.438275 0.95003,-0.811389 2.29376,-0.125236 4.01779,-1.359606 2.34774,-1.68028 3.18135,-0.522111 5.42678,-1.870428 0.53622,-0.322086 0.20602,0.02223 0.52811,-0.417336 0.56268,-0.76835 -0.1584,-0.370416 0.61348,-2.065866 0.56832,-1.248481 -0.10795,-2.065161 0.39793,-3.240617 0.37677,-0.874889 0.31821,-0.210608 0.19403,-1.240366 -1.47673,-0.127 -1.10384,-0.04657 -2.21333,-0.496006 -2.43981,-0.988483 -4.59422,0.3556 -7.30991,-0.0028 -2.30434,-0.304447 0.29175,-0.868892 -4.47393,-0.846667 -0.94897,0.0046 -1.66546,0.08361 -2.50719,0.117828 -0.75776,0.03104 -1.34655,0.0755 -1.95686,0.849489 -1.42945,-0.178858 -1.1437,-0.03104 -2.09444,0.30727 -1.06397,0.377825 -1.2453,0.196144 -1.26259,-0.928512 -0.62688,-0.804333 -2.63772,-0.08819 -3.991328,0.297745 -3.229679,0.921103 -8.307917,2.796469 -11.200694,4.343752 -3.277306,1.752953 -6.551189,3.597628 -9.566346,5.774972 l -4.337367,3.330222 c -0.509446,0.385586 -0.883884,0.636411 -1.399116,1.092906 l -4.657901,4.347991 c -0.408446,0.40569 -0.27492,0.24412 -0.651404,0.68968 -1.81543,2.14771 -4.435369,4.52472 -5.926243,6.90668 -0.874783,1.39735 -1.781669,2.04787 -3.204104,4.64608 -0.828464,1.51342 -1.687125,2.43311 -1.85674,3.50062 -0.464538,0.14746 -0.470465,0.38205 -0.666715,0.85936 l -3.061158,9.44915 c -0.03627,1.17052 -0.493501,2.4952 -0.89588,3.46358 -0.353201,0.85054 -0.413667,0.75741 -0.454871,1.87113 -0.0616,1.66264 0.482564,4.7177 1.301397,5.47158 0.565679,0.52106 0.767856,0.1203 1.235004,1.05657 0.369852,0.74119 0.144427,1.13454 0.41148,1.90712 0.332952,0.96273 2.994625,2.72274 2.830513,6.02474 -0.043,0.86254 -0.113701,0.67733 0.395746,1.44709 0.484258,0.73166 0.321098,0.8315 0.701569,1.5875 0.528461,1.04952 1.206324,1.88736 2.578452,1.93781 0.115324,-1.12219 -0.49156,-1.03822 -0.996067,-1.97591 -1.848768,-3.43641 0.22546,-4.83411 0.07595,-7.90645 -0.670559,-0.4632 -1.415097,-0.86995 -2.119982,-1.29928 -0.358564,-3.29953 1.92913,-4.83482 1.908034,-6.68761 -1.871522,-0.0607 -1.830317,-0.46108 -2.530899,0.49248 -0.567619,0.77258 -0.606213,1.75895 -1.492567,1.78787 -0.583036,0.019 -0.740128,0.23389 -0.794138,-1.15217 -0.01199,-0.30586 0.01637,-0.82162 0.04974,-1.12924 0.346145,-3.19581 1.524917,-6.22723 3.114075,-8.9475 0.268428,-0.45932 0.54363,-0.93416 0.989153,-1.31092 0.241724,-0.20462 0.357752,-0.23354 0.660083,-0.49037 l 1.760043,-0.58984 c 0.827794,0.20355 0.36629,0.24483 0.962414,0.74154 0.617361,-0.32456 0.813858,-0.73343 1.53169,-0.74577 0.682801,-0.0124 1.299492,0.43709 1.716617,0.8195 0.146896,2.27189 -0.572418,2.99261 -0.55686,5.1696 0.434481,0.28611 0.57284,0.34749 0.958144,0.72955 0.764964,-0.98425 0.915282,-2.27013 1.147763,-3.80577 0.237454,-1.56809 1.230877,-3.29741 2.151133,-3.98568 0.319546,-0.23883 0.463303,-0.24342 0.812059,-0.52493 1.648848,-1.33139 3.514972,-1.84256 4.286954,-3.18594 0.494559,-0.86078 0.197874,-0.7807 0.953876,-1.53705 l 1.267672,-1.2192 c 3.405258,-3.52602 2.893448,-0.89641 5.87195,-4.10069 0.642975,-0.6918 2.599479,-1.36067 3.847254,-1.30175 z m -14.410901,78.3985 c 0.397016,1.8161 1.110439,3.53731 1.484031,5.29449 0.401425,1.88832 0.842539,3.48382 1.319599,5.3727 0.496501,1.96564 0.447852,1.21144 1.007888,2.43748 1.643872,3.59749 0.775158,3.10597 1.566825,5.15208 0.343289,0.88759 0.780521,1.33364 1.239698,2.01344 0.533153,0.78892 0.729403,1.39637 1.302668,2.1372 0.501189,0.64767 0.943961,1.18925 1.455065,1.80135 0.313373,0.37511 1.629058,2.51549 2.839085,3.8632 l 3.818821,2.88851 c 0.318204,0.19526 0.799746,0.42457 1.143704,0.57616 0.358775,0.15793 0.891471,0.2862 1.249892,0.4918 0.537281,0.30869 0.524933,0.86089 2.282121,0.77806 -0.353484,-0.58071 -0.02858,-0.95677 0.584552,-1.16004 -0.829734,-0.27298 -2.172407,-1.06232 -2.836334,-1.55702 -1.142293,-0.8515 -1.473552,-1.0691 -1.539875,-2.91141 -0.5461,-0.42277 -1.212498,-0.93045 -1.719439,-1.29646 -0.0508,-0.70844 0.08643,-1.03956 0.08008,-1.3572 -0.02151,-1.06123 -0.886531,-1.51959 0.175683,-2.83863 l 0.353132,-0.44496 c 1.415343,-0.0653 1.462968,0.0143 2.161468,-0.90304 0.705557,-0.92618 0.327732,-0.65348 0.270227,-2.13113 0.503063,-0.25798 1.456621,0.0631 2.342798,-1.76004 1.39559,-2.87045 2.141009,-2.58339 2.943225,-4.71138 0.502709,-1.33393 -0.30621,-2.07575 0.209902,-3.28662 0.585613,-0.21509 0.26529,-0.2067 0.889355,-0.56057 0.396875,-0.22503 0.827262,-0.35941 1.213202,-0.51195 3.512606,-1.38867 4.579756,0.30992 6.167256,-3.65104 0.55104,-1.37548 1.22555,-3.44452 1.08797,-5.35869 -0.26247,-3.6516 0.40675,-2.08703 1.70215,-4.45735 0.87772,-1.60584 2.34598,-2.32727 2.93335,-3.57963 0.34925,-0.74401 0.26635,-2.04364 -0.0437,-2.81587 -0.38735,-0.9645 -0.91017,-0.92005 -1.9431,-1.3081 -1.71309,-0.64312 -2.73156,-2.19781 -3.88585,-2.63173 -1.43051,-0.53763 -4.41325,-0.56409 -5.421842,-1.11971 -0.60466,-0.33267 -0.283633,-0.25048 -0.848429,-0.66499 -0.03246,-0.0233 -0.08079,-0.0533 -0.113241,-0.0773 -0.03281,-0.0236 -0.08114,-0.0543 -0.113948,-0.0787 -3.684411,-2.71145 -5.61975,-0.92322 -6.731352,-4.42312 -0.275167,-0.86643 -0.607838,-1.40194 -0.926396,-2.31281 -0.591961,-1.69193 -0.815621,-2.56929 -2.916767,-3.58493 -2.519185,-1.21709 -3.623379,-0.18803 -4.806701,-1.71909 -0.246804,-0.31926 -0.284552,-0.54434 -0.587587,-0.93839 l -0.705027,-1.02835 c -0.318876,-0.47131 -1.181664,-1.1691 -1.628704,-1.62277 -1.084791,-1.09996 -0.592137,-2.61726 -3.983498,-2.20628 -1.713299,0.20779 -0.42746,-0.26881 -2.428909,-0.74718 -1.396224,-0.33337 -1.121163,-1.0033 -1.822873,-1.46403 -0.444147,-0.29139 -0.858238,-0.1023 -1.428185,-0.27516 -1.600588,-0.48472 0.574922,-1.50778 -3.813316,0.27199 -1.309829,0.53093 -0.821584,0.71402 -1.809786,2.02706 -0.904663,0.0222 -0.995644,-0.27023 -1.714429,0.19509 0.505213,1.57585 0.699664,3.94581 0.398815,5.75204 -0.51181,3.07163 -1.179583,2.10361 -2.221406,4.48063 -1.087261,2.48073 0.178047,3.15066 -0.366113,5.37492 -0.454907,1.85914 0.774171,2.88008 1.603728,4.79107 l 4.181828,9.02653 c 0.924101,1.36419 3.043519,2.49555 4.744296,4.2739 0.02755,0.0286 0.06724,0.0695 0.09465,0.0981 l 1.509783,2.39783 M 174.51073,110.78243 c -1.40758,0.0681 -1.82915,-0.89324 -3.62267,0.38664 -0.62512,0.44591 -0.97332,1.68981 -2.35479,0.15734 -0.98249,-1.08938 -2.02565,-3.06529 -1.94698,-4.62491 0.99236,0.127 1.23648,0.47236 1.85949,0.98777 0.56656,-0.42227 0.63006,-1.37301 1.71379,-0.70132 -0.1404,-1.7526 -2.12584,-1.16417 -1.34443,-2.66418 1.04281,-0.18768 1.38535,0.72496 1.78999,1.3148 0.56656,0.82586 1.08373,0.86466 2.06939,1.37196 1.20227,0.61877 3.53413,1.72155 2.77531,3.71298 z m -30.10429,-6.29003 c -1.37513,-0.6223 -0.5087,-1.02941 -1.7145,-1.89936 -1.39135,-1.00365 -3.35103,-1.87572 -4.1977,-3.427584 -0.0212,-0.03845 -0.042,-0.09066 -0.0631,-0.12947 -0.17568,-0.322086 -0.49036,-0.814564 -0.84878,-0.933097 l -0.29422,-0.0508 c -0.82056,-0.02716 -1.16169,0.523522 -1.26294,1.211792 -0.0991,0.678039 0.21801,0.590902 0.0896,1.649239 -0.30233,0.55668 -2.45851,0.83537 -1.07844,3.55741 2.32374,-0.0413 1.66475,-1.23825 2.13853,-2.88361 2.97921,0.0681 1.09326,1.36878 2.27577,3.48192 l 3.83329,0.13829 0.0328,0.97825 -1.93182,1.92088 c 1.74167,0.96872 3.6509,2.12407 3.1295,4.73956 -2.01013,0.24236 -3.98957,-0.16121 -5.72241,0.25224 -0.26317,0.52176 -0.0921,0.17956 -0.0737,0.60078 -0.83714,0.35066 -0.29528,1.05481 -0.0706,1.7212 0.50729,1.50495 -0.24236,2.46557 0.89111,4.08305 0.49319,0.70344 0.75848,0.47167 1.76707,0.66323 1.21391,0.23036 2.17346,1.58785 1.47884,3.37608 -0.37535,0.96696 -2.03023,1.6697 -2.47297,2.71568 -0.61101,1.44427 0.41734,2.43382 -0.64311,3.93136 -0.96732,1.36736 -2.29764,1.29998 -3.01696,2.15864 -0.12523,0.14958 -3.38772,6.23006 -3.38419,6.69185 -0.16793,0.23495 -0.10196,0.0483 -0.20991,0.46143 -0.25858,0.99095 0.2921,1.96039 0.55774,2.84268 0.29528,0.98143 0.56692,2.23626 0.30551,3.51543 -0.20743,1.01777 -1.61643,4.27249 0.23918,6.26463 l 2.2472,1.76812 c 1.42134,0.97826 1.5568,2.36785 2.40876,3.53448 0.45826,0.62724 1.69863,1.06539 2.32834,1.5113 3.55952,2.51919 3.44064,2.5841 6.7384,1.34761 1.28165,-0.48048 2.39642,-0.22683 3.8414,-0.17003 2.68676,0.10477 6.2798,-4.31448 8.78875,-1.7071 0.77118,0.80151 0.80645,1.74661 2.17029,1.46227 0.8629,-0.18027 1.15429,-0.44874 2.30858,0.17921 0.39793,0.2166 0.66428,0.22048 0.83538,1.17546 l 0.0257,2.49131 c -0.0434,1.19345 -0.30939,1.93569 -0.28999,3.05576 0.0473,2.75661 2.01331,1.65559 3.33905,6.8132 0.30162,1.17263 0.0261,1.89865 0.15663,3.08927 0.28116,2.55482 1.7466,1.12325 -0.42228,4.79319 -1.78153,3.01414 -0.68156,1.36349 -1.69686,3.46781 -0.19755,0.40993 -0.0413,-0.0709 -0.22366,0.54504 -2.6e-4,0.001 -0.13123,0.62089 -0.133,0.63324 -0.49671,3.34751 1.67746,2.7686 0.15911,8.757 -0.28646,1.13122 -0.51823,1.59011 -0.2286,2.61094 0.25258,0.89038 0.3182,3.49074 -0.0917,4.51115 l -0.5013,1.04249 0.9204,0.66876 c 0.48718,0.22765 0.55845,0.17047 1.06574,-0.0322 1.07527,-0.4294 0.19156,-0.29284 2.10008,-0.79541 2.04964,-0.53989 1.54517,-0.0985 3.71758,-1.85236 0.58384,-0.47114 1.04422,-0.84625 1.51659,-1.36384 l 0.83149,-0.69286 c 0.64065,-0.52574 0.22331,-0.21512 0.58597,-0.76757 l 3.46745,-4.76804 c 0.51858,-1.20579 0.3429,-0.94368 1.23543,-1.81857 2.90442,-2.84621 0.85619,-3.30623 3.77437,-7.50993 2.30822,-3.32493 3.01061,-3.02754 3.92148,-6.02156 0.60642,-1.9939 1.06997,-2.21792 1.04704,-5.77674 -0.0392,-6.1087 1.4799,-8.99689 2.91641,-14.15909 0.39088,-1.40405 1.16558,-2.81904 1.35644,-4.18394 0.2674,-1.91559 0.91863,-8.49101 0.22366,-10.1219 l -1.34691,-0.005 c -0.54716,0.65369 -0.42439,1.06962 -1.15394,1.39029 -1.15464,-1.15958 -0.36971,-2.87408 0.26494,-3.95569 1.45944,-2.48603 0.40111,-2.41265 1.27353,-3.98463 0.66816,0.036 0.27587,-0.12559 0.76941,0.18768 l -2.53506,-12.09252 -2.28353,-5.17772 c -1.78294,-3.4043 -2.84269,-5.00344 -4.78438,-8.04015 -2.47403,-3.86998 -6.13868,-8.06979 -9.40964,-11.46634 l -3.69782,-3.392662 c -0.79339,-0.66428 -1.03328,-1.010003 -1.98366,-1.65735 -2.25355,-1.53423 -4.43689,-3.556 -7.6006,-5.435952 -0.37782,-0.224367 -0.78952,-0.452614 -1.20403,-0.71367 -0.41981,-0.26423 -0.59937,-0.428625 -1.0668,-0.658989 -0.3302,-0.16263 -0.34819,-0.135819 -0.64558,-0.313972 -0.25683,-0.153811 -0.28611,-0.2159 -0.56798,-0.390172 l -7.51734,-3.609622 c -1.87819,-0.769408 -3.3655,-1.3716 -5.42995,-2.054931 -2.02883,-0.671336 -6.53944,-2.087386 -8.44938,-2.322689 -1.24743,-0.153811 -2.14736,-0.366888 -3.20887,-0.612422 -0.64311,0.467784 -0.002,0.572559 -1.92299,0.572559 l -0.19226,0.363713 c 1.53881,0.66922 3.19475,0.790928 5.00838,1.138062 1.42381,0.272697 3.81353,1.07703 5.00027,1.178277 0.23354,1.502834 0.74119,1.325034 2.82998,2.326217 3.65725,1.752953 2.23485,0.616655 3.31506,0.436739 1.09961,-0.182739 2.74143,1.456972 1.78364,2.288822 -2.18581,0.311855 -5.57671,-0.999419 -6.67985,-0.399697 -0.95461,0.518936 -1.41463,1.1176 -1.78187,2.094089 -0.38806,1.03258 0.33513,0.99695 0.65722,2.871611 0.23918,1.391708 -0.72884,1.864783 -0.85231,2.834569 -0.10301,0.807861 1.04775,1.763536 1.56457,2.170641 1.39347,1.096786 1.36031,-0.02187 2.44687,-0.215547 0.71578,-0.127705 1.2326,0.185561 1.36242,0.683683 0.20426,0.784931 -0.26105,1.237545 -0.42051,1.698978 0.37289,0.798685 0.88512,1.066795 1.06715,1.908885 -0.2794,0.54751 -0.67768,0.90769 -1.00753,1.40581 -0.34184,0.51682 -0.50835,1.00189 -0.69144,1.59527 z m 22.23347,9.02017 0.133,-0.3496 c 0.01,-0.0829 0.0935,-0.0815 0.1344,-0.12735 1.08268,0.22331 1.18146,0.77294 1.76671,1.60055 2.98839,4.22875 4.22558,1.14476 5.92561,2.80459 0.84455,-0.25965 0.043,-0.36901 1.3462,-0.4311 0.91758,0.82938 1.06786,1.29857 1.50354,2.47897 l 0.6343,2.24331 c 0.0381,1.21144 -0.67451,1.15535 -0.73943,1.18181 -1.95685,0.79304 -2.96968,0.90805 -5.14949,0.23848 -4.41396,-1.35573 -3.40819,0.82655 -3.53766,2.38865 -1.26012,0.004 -2.54847,-0.30903 -3.37538,-0.86959 -1.51306,-1.02658 -1.004,-0.81351 -3.17041,-1.05269 -3.41313,-0.37712 -2.37913,-2.64619 -3.8361,-4.54695 -0.80257,-0.0536 -2.9016,0.57397 -4.07953,0.68368 -1.2834,0.11994 -2.94992,0.38982 -3.95569,0.88441 -4.00015,1.96744 -2.79683,2.40454 -6.85659,0.92146 l 0.0395,-0.80433 c 0.75847,-0.49919 0.0794,-0.35807 1.14159,-0.63747 1.38147,-0.36372 2.57704,-1.1804 2.71674,-2.82223 0.12735,-1.49824 -0.66781,-1.39241 0.6103,-2.6162 1.00754,-0.96484 0.81245,-1.05798 1.26542,-2.37984 3.89502,-0.26281 1.51095,-0.74295 3.33198,-1.15499 1.63125,-0.36865 2.22074,0.75107 3.17253,1.3014 2.52131,1.45732 4.16843,1.74978 5.66914,3.31823 3.08857,-2.88008 -4.98969,-3.11186 -4.76638,-5.6441 1.11443,-0.35066 1.68981,0.65794 3.20323,1.08515 3.37855,0.95356 2.02353,1.42134 4.95652,3.89361 0.84208,0.70979 1.55364,1.39241 2.21263,2.16323 2.33468,-1.74484 -0.0815,-2.00907 -0.29669,-3.75109 z m 14.46565,13.93261 c 0.44027,-0.73025 -0.1658,-0.34749 0.54645,-0.32173 0.44627,0.0162 0.254,0.20919 1.07739,1.22555 0.73766,0.91052 2.17875,2.48461 2.5213,3.22368 0.33972,0.73413 0.50094,1.31727 0.93874,1.93357 1.57374,2.21368 3.67912,4.82283 3.81741,7.72654 -1.28552,-0.11077 -1.46473,-1.37901 -1.92123,-2.34103 -0.45261,-0.95321 -1.1751,-1.59279 -1.68769,-2.52448 -0.46249,-0.84102 -0.75071,-2.20662 -1.25447,-2.94816 -0.30939,-0.45544 -0.59197,-0.59196 -1.00048,-1.12713 -0.39441,-0.51682 -0.44697,-0.92322 -0.84244,-1.29469 -0.25188,-1.12713 -1.59737,-2.26942 -2.19498,-3.55212 z M 149.55171,95.130031 c 2.71004,0.189794 2.64865,1.672519 3.36303,3.061052 0.29562,0.574675 0.63323,0.913342 0.9278,1.386064 -1.06186,0.718253 -3.50626,1.451323 -3.80541,-0.243416 -0.25682,-1.453092 0.72707,-1.013178 0.34184,-2.070453 -0.38417,-1.056217 -0.9338,-0.196497 -0.82726,-2.133247" /><path
           id="path8"
           style="fill:#2c8ecb;fill-opacity:1;fill-rule:evenodd;stroke:none;stroke-width:0.0352777"
           d="m 153.84254,99.577147 c -0.29457,-0.472722 -0.63218,-0.811389 -0.9278,-1.386064 -0.71438,-1.388533 -0.65299,-2.871258 -3.36303,-3.061052 -0.10654,1.93675 0.44309,1.07703 0.82726,2.133247 0.38523,1.057275 -0.59866,0.617361 -0.34184,2.070453 0.29915,1.694739 2.74355,0.961669 3.80541,0.243416 m 29.458,31.420153 c 0.39547,0.37147 0.44803,0.77787 0.84244,1.29469 0.40851,0.53517 0.69109,0.67169 1.00048,1.12713 0.50376,0.74154 0.79198,2.10714 1.25447,2.94816 0.51259,0.93169 1.23508,1.57127 1.68769,2.52448 0.4565,0.96202 0.63571,2.23026 1.92123,2.34103 -0.13829,-2.90371 -2.24367,-5.51286 -3.81741,-7.72654 -0.4378,-0.6163 -0.59902,-1.19944 -0.93874,-1.93357 -0.34255,-0.73907 -1.78364,-2.31316 -2.5213,-3.22368 -0.82339,-1.01636 -0.63112,-1.20933 -1.07739,-1.22555 -0.71225,-0.0257 -0.10618,-0.40852 -0.54645,0.32173 0.59761,1.2827 1.9431,2.42499 2.19498,3.55212 m -8.78981,-20.21487 c 0.0342,-1.94522 -3.07516,-2.65219 -4.35116,-3.79448 -1.08373,-0.67169 -1.14723,0.27905 -1.71379,0.70132 -0.62301,-0.51541 -0.86713,-0.86077 -1.85949,-0.98777 -0.0787,1.55962 0.96449,3.53553 1.94698,4.62491 1.38147,1.53247 1.72967,0.28857 2.35479,-0.15734 1.79352,-1.27988 2.21509,-0.31856 3.62267,-0.38664 m -80.060442,85.93123 c -0.516112,1.21087 0.292807,1.95269 -0.209902,3.28662 -0.802216,2.12799 -1.547635,1.84093 -2.943225,4.71138 -0.886177,1.82316 -1.839735,1.50206 -2.342798,1.76004 0.0575,1.47765 0.43533,1.20495 -0.270227,2.13113 -0.6985,0.91737 -0.746125,0.83771 -2.161468,0.90304 l -0.353132,0.44496 c -1.062214,1.31904 -0.197202,1.7774 -0.175683,2.83863 0.0063,0.31764 -0.130881,0.64876 -0.08008,1.3572 0.506941,0.36601 1.173339,0.87369 1.719439,1.29646 0.06632,1.84231 0.397582,2.05991 1.539875,2.91141 0.663927,0.4947 2.0066,1.28404 2.836334,1.55702 -0.613127,0.20327 -0.938036,0.57933 -0.584552,1.16004 -1.757188,0.0828 -1.74484,-0.46937 -2.282121,-0.77806 -0.358421,-0.2056 -0.891117,-0.33387 -1.249892,-0.4918 -0.343958,-0.15159 -0.8255,-0.3809 -1.143704,-0.57616 l -3.818821,-2.88851 c -1.210027,-1.34771 -2.525712,-3.48809 -2.839085,-3.8632 -0.511104,-0.6121 -0.953876,-1.15368 -1.455065,-1.80135 -0.573265,-0.74083 -0.769515,-1.34828 -1.302668,-2.1372 -0.459177,-0.6798 -0.896409,-1.12585 -1.239698,-2.01344 -0.791667,-2.04611 0.07705,-1.55459 -1.566825,-5.15208 -0.560036,-1.22604 -0.511387,-0.47184 -1.007888,-2.43748 -0.47706,-1.88888 -0.918174,-3.48438 -1.319599,-5.3727 -0.373592,-1.75718 -1.087015,-3.47839 -1.484031,-5.29449 l -1.509784,-2.39783 c -0.02741,-0.0286 -0.0671,-0.0695 -0.09465,-0.0981 -1.700777,-1.77835 -3.820195,-2.90971 -4.744296,-4.2739 l -4.181828,-9.02652 c -0.829557,-1.911 -2.058635,-2.93194 -1.603728,-4.79108 0.54416,-2.22426 -0.721148,-2.89419 0.366113,-5.37492 1.041823,-2.37702 1.709596,-1.409 2.221406,-4.48063 0.300849,-1.80622 0.106398,-4.17618 -0.398815,-5.75204 0.718785,-0.46532 0.809766,-0.17286 1.714429,-0.19509 0.988202,-1.31304 0.499957,-1.49613 1.809786,-2.02706 4.388238,-1.77976 2.212728,-0.75671 3.813316,-0.27199 0.569947,0.17286 0.984038,-0.0162 1.428185,0.27517 0.70171,0.46072 0.426649,1.13065 1.822873,1.46402 2.001449,0.47837 0.71561,0.95497 2.428909,0.74719 3.391361,-0.41099 2.898707,1.10631 3.983498,2.20627 0.44704,0.45367 1.309828,1.15146 1.628704,1.62278 l 0.705027,1.02834 c 0.303035,0.39406 0.340783,0.61913 0.587587,0.93839 1.183322,1.53106 2.287516,0.502 4.806701,1.71909 2.101146,1.01565 2.324806,1.893 2.916767,3.58493 0.318558,0.91087 0.651229,1.44639 0.926396,2.31281 1.111602,3.49991 3.046941,1.71168 6.731352,4.42313 0.03281,0.0243 0.08114,0.055 0.113948,0.0787 0.03245,0.024 0.08078,0.054 0.113241,0.0773 0.564796,0.41452 0.243769,0.33232 0.848429,0.66499 1.008592,0.55562 3.991332,0.58208 5.421842,1.11972 1.15429,0.43391 2.17276,1.9886 3.88585,2.63172 1.03293,0.38805 1.55575,0.3436 1.9431,1.3081 0.31009,0.77223 0.39299,2.07186 0.0437,2.81587 -0.58737,1.25236 -2.05563,1.97379 -2.93335,3.57963 -1.2954,2.37032 -1.96461,0.80575 -1.70215,4.45735 0.13759,1.91418 -0.53692,3.98322 -1.08796,5.3587 -1.5875,3.96095 -2.65466,2.26236 -6.167265,3.65103 -0.38594,0.15255 -0.816327,0.28692 -1.213202,0.51196 -0.624064,0.35387 -0.303741,0.34547 -0.889354,0.56056 z M 196.33039,151.86622 v 4.49721 c -0.0988,3.23215 -0.40076,6.46183 -0.85019,9.36943 -0.13265,0.85795 -1.31022,7.3921 -1.84221,8.3252 l -0.133,0.55986 -1.42346,-0.0416 c -0.0758,0.54716 -0.45331,1.52506 -0.66216,2.03659 -0.82374,2.01965 0.39441,1.09502 -1.2065,2.60138 -0.45155,0.42474 -0.52952,0.70661 -0.89888,1.59067 l -0.92145,2.90019 c -0.74683,1.85102 -2.26801,4.15113 -2.24049,5.20523 0.67768,0.4752 0.79057,-0.0914 1.07844,0.65264 0.18627,0.48084 -0.14041,0.69356 -0.28081,1.25624 l -5.91609,8.67696 c -1.26047,1.54245 -3.38278,4.2503 -4.65419,5.49702 -0.39547,0.38763 -0.68263,0.65222 -1.05304,1.05431 l -5.65574,5.26673 c -3.3274,2.85834 -6.8714,5.16075 -10.61296,7.40875 -0.4184,0.25136 -0.82339,0.50684 -1.19698,0.72059 l -4.22204,2.10714 c -0.60925,0.25534 -0.83397,0.29806 -1.15429,0.8249 -0.81069,-0.0152 -4.52649,1.57702 -5.65044,1.97347 -4.47499,1.57815 -7.72584,2.35494 -12.43542,2.76423 -1.49366,0.12981 -2.08386,0.23771 -3.42582,0.41051 l -6.69608,0.76799 c -3.43006,0.52971 -7.43514,0.44248 -10.801,0.0945 -8.82262,-0.91226 -8.53828,-2.38513 -11.7602,-3.36571 l -0.6738,0.65236 c -0.0148,-0.0325 -0.0617,0.0759 -0.0956,0.11162 -1.579744,-0.0105 -1.776242,-0.55122 -3.076931,-0.54268 -0.262821,-0.23869 -0.01765,-0.0633 -0.372181,-0.25439 -0.470607,-0.25382 -3.163358,-1.01367 -4.599517,-1.74625 -0.492831,-0.25135 -0.950031,-0.36421 -1.502481,-0.60854 -2.954512,-1.30651 -8.945033,-4.30512 -11.715395,-6.31444 -2.552666,-1.85152 -6.60453,-4.66397 -8.977913,-6.9318 -0.403366,-0.38531 -0.657754,-0.66065 -1.053783,-1.05378 l -3.465371,-3.43214 c -1.844922,-1.85046 -4.006215,-4.86132 -5.533354,-6.72402 -0.183022,-0.2231 -0.06713,-0.0666 -0.263772,-0.31101 l -2.846741,-4.2661 c -0.01337,-0.0656 -0.06174,-0.0744 -0.09648,-0.10795 -0.101142,-0.56586 -0.336092,-0.95744 -0.345052,-1.53106 -0.01115,-0.69779 0.239501,-0.7119 0.0182,-1.3395 -0.255234,-0.7246 -1.024149,-1.69262 -1.422964,-2.2225 -1.959293,-2.60491 -2.116102,-4.35222 -2.823316,-3.43887 -0.385163,-1.09291 -0.832908,-1.93358 -1.227032,-3.03918 -3.487112,-9.78359 -3.575445,-9.95433 -5.066756,-21.12187 l -0.24474,-3.88126 v -0.95073 c 0.06105,-10.05805 0.458474,-12.66084 2.923646,-22.37352 l 2.194811,-6.33801 c -0.03627,1.17052 -0.493501,2.4952 -0.89588,3.46357 -0.353201,0.85055 -0.413667,0.75742 -0.454871,1.87114 -0.0616,1.66264 0.482564,4.71769 1.301397,5.47158 0.565679,0.52105 0.767856,0.1203 1.235004,1.05657 0.369852,0.74119 0.144427,1.13453 0.41148,1.90712 0.332952,0.96273 2.994625,2.72273 2.830513,6.02473 -0.043,0.86255 -0.113701,0.67734 0.395746,1.4471 0.484258,0.73166 0.321098,0.8315 0.701569,1.5875 0.528461,1.04951 1.206324,1.88736 2.578452,1.93781 0.115324,-1.12219 -0.49156,-1.03823 -0.996067,-1.97591 -1.848768,-3.43641 0.22546,-4.83411 0.07595,-7.90646 -0.670559,-0.46319 -1.415097,-0.86995 -2.119982,-1.29928 -0.358564,-3.29953 1.92913,-4.83482 1.908034,-6.6876 -1.871522,-0.0607 -1.830317,-0.46108 -2.530899,0.49247 -0.567619,0.77259 -0.606213,1.75895 -1.492567,1.78788 -0.583036,0.0191 -0.740128,0.23389 -0.794138,-1.15217 -0.01199,-0.30586 0.01637,-0.82162 0.04974,-1.12924 0.346145,-3.19582 1.524917,-6.22724 3.114075,-8.94751 0.268428,-0.45931 0.54363,-0.93415 0.989153,-1.31092 0.241724,-0.20461 0.357752,-0.23354 0.660083,-0.49036 l 1.760043,-0.58984 c 0.827794,0.20355 0.36629,0.24482 0.962414,0.74154 0.617361,-0.32456 0.813858,-0.73343 1.53169,-0.74578 0.682801,-0.0124 1.299492,0.4371 1.716617,0.81951 0.146896,2.27189 -0.572418,2.99261 -0.55686,5.1696 0.434481,0.2861 0.57284,0.34749 0.958144,0.72955 0.764964,-0.98425 0.915282,-2.27013 1.147763,-3.80577 0.237454,-1.5681 1.230877,-3.29741 2.151133,-3.98568 0.319546,-0.23883 0.463303,-0.24342 0.812059,-0.52494 1.648848,-1.33138 3.514972,-1.84256 4.286954,-3.18593 0.494559,-0.86078 0.197874,-0.7807 0.953876,-1.53705 l 1.267672,-1.2192 c 3.405258,-3.52602 2.893448,-0.89641 5.87195,-4.10069 0.642975,-0.6918 2.599479,-1.36067 3.847254,-1.30175 0.693914,0.50588 0.34925,0.39934 0.819504,0.91369 0.767996,-0.42192 1.750129,-0.74048 2.677935,-0.91652 -0.270227,-0.88758 -1.413227,-1.16416 -0.600427,-2.67582 0.238829,-0.44485 0.572204,-0.62723 0.859367,-1.05939 0.328787,-0.4953 0.338667,-0.79304 0.651227,-1.27282 0.935215,0.0194 0.905581,-0.006 1.326444,0.54293 1.213204,-0.83397 1.212498,-0.73907 3.468864,-0.94369 -0.105833,1.06187 -0.0046,0.82586 -1.278466,1.95792 0.320675,1.06539 0.244123,1.03011 1.338085,1.36102 0.935566,0.28257 1.32715,0.51294 2.307521,0.56303 0.138994,-0.98531 0.429329,-0.77964 -0.09102,-1.57233 -0.373592,-0.56903 -0.807508,-0.74259 -0.612775,-1.57021 0.244475,-1.03893 1.581502,-1.65559 1.086202,-2.9143 -0.42686,-1.08514 -1.631598,-1.49578 -1.297165,-3.027538 0.453321,-2.076097 1.002242,-0.924631 -0.02681,-3.322108 -0.85866,0.03351 -1.111956,0.344663 -2.03976,0.481894 0.130879,-1.175456 -0.188383,-2.728383 -1.127125,-3.231444 -0.642763,-0.344311 -0.448029,0.09278 -1.125008,-0.454025 -0.466373,0.698147 -1.537759,1.52153 -2.168173,1.969205 -0.962025,0.683683 -0.930982,1.533878 -1.93675,2.469797 -1.091848,1.016353 -1.41464,0.939447 -2.83351,1.586442 -1.1303,0.515055 -1.236488,1.429107 -2.198159,2.093387 0.189087,-1.057632 1.551869,-1.602673 0.836435,-2.174526 -0.478014,-0.265289 -1.580091,-3.088569 1.588559,-5.034139 0.767998,-0.470958 1.640768,-0.948972 2.542823,-1.28905 0.887235,-0.334433 2.281766,-0.582789 3.07481,-0.899583 0.494948,0.424039 0.531635,0.935567 1.585383,0.379236 0.912636,-0.481894 0.652286,-0.722136 1.49225,-1.212497 0.25894,-0.150989 3.40501,-1.428044 3.653015,-1.484136 0.417687,0.407105 0.137229,-0.0575 0.23495,0.710142 L 95.9697,90.592603 c -0.106186,0.658636 -0.747184,2.537178 0.700616,3.309761 1.280936,0.684036 2.213682,-0.776111 2.932287,-1.39065 0.540457,-0.462491 1.522947,-0.471311 2.323397,-0.936978 -0.56233,-2.460272 0.0938,-1.551163 0.2346,-2.505074 0.121,-0.81915 -0.33691,-1.9431 0.33372,-2.832453 0.52458,-0.694972 3.92536,-1.637595 5.18231,-1.666522 0.036,0.04551 0.0727,0.06668 0.0885,0.14993 0.11077,0.591961 0.66639,0.765175 1.07315,0.892175 l 0.64523,0.220839 c -0.15064,1.122539 -0.94474,1.892653 -1.34268,2.756253 -0.40181,0.872772 -0.002,0.653344 -0.77646,1.320094 -0.41769,0.359481 -0.7426,0.590903 -0.91934,1.183922 -0.248,0.830439 -0.59831,4.18077 1.07809,4.996745 0.43039,0.20955 1.08585,0.508705 1.49966,0.624064 0.93133,-0.546453 1.49684,-1.566334 2.15018,-2.066925 1.61396,-1.237192 0.629,-0.750006 1.4351,-1.438275 0.95003,-0.811389 2.29376,-0.125236 4.01779,-1.359606 2.34773,-1.68028 3.18135,-0.522111 5.42678,-1.870428 0.53622,-0.322086 0.20602,0.02223 0.52811,-0.417336 0.56268,-0.76835 -0.1584,-0.370416 0.61348,-2.065866 0.56832,-1.248481 -0.10795,-2.065161 0.39793,-3.240617 0.37677,-0.874889 0.3182,-0.210608 0.19403,-1.240366 -1.47673,-0.127 -1.10384,-0.04657 -2.21333,-0.496006 -2.43981,-0.988483 -4.59422,0.3556 -7.30991,-0.0028 -2.30435,-0.304447 0.29175,-0.868892 -4.47393,-0.846667 -0.94897,0.0046 -1.66546,0.08361 -2.50719,0.117828 -0.75777,0.03104 -1.34655,0.0755 -1.95686,0.849489 -1.42945,-0.178858 -1.1437,-0.03104 -2.09444,0.30727 -1.06398,0.377825 -1.2453,0.196144 -1.26259,-0.928512 l 0.13159,0.381706 c 0.40392,-0.192264 2.09585,-0.611364 2.5474,-0.716845 6.84248,-1.594908 13.6391,-1.764594 20.72182,-1.764594 v -0.572558 h 2.11561 c 0.0607,0.726722 0.0212,0.644878 0.69779,0.834319 l 3.72533,0.292806 c 1.53882,0.669219 3.19476,0.790927 5.00839,1.138061 1.42381,0.272697 3.81353,1.07703 5.00027,1.178278 0.23354,1.502833 0.74119,1.325033 2.82998,2.326216 3.65725,1.752953 2.23485,0.616656 3.31506,0.436739 1.09961,-0.182739 2.74143,1.456972 1.78364,2.288822 -2.18581,0.311856 -5.57671,-0.999419 -6.67985,-0.399697 -0.95461,0.518936 -1.41463,1.1176 -1.78187,2.094089 -0.38806,1.03258 0.33513,0.99695 0.65722,2.871611 0.23918,1.391708 -0.72884,1.864783 -0.85231,2.834569 -0.10301,0.807861 1.04775,1.763536 1.56457,2.170642 1.39347,1.096786 1.36031,-0.02187 2.44687,-0.215548 0.71578,-0.127705 1.2326,0.185561 1.36242,0.683684 0.20426,0.78493 -0.26105,1.237544 -0.42051,1.698977 0.37289,0.798691 0.88512,1.066801 1.06715,1.908881 -0.2794,0.54751 -0.67768,0.9077 -1.00753,1.40582 -0.34184,0.51682 -0.50835,1.00189 -0.69144,1.59526 l -1.10314,0.005 c -1.37513,-0.6223 -0.5087,-1.02941 -1.7145,-1.89936 -1.39135,-1.00365 -3.35104,-1.87572 -4.1977,-3.427584 -0.0212,-0.03845 -0.042,-0.09066 -0.0631,-0.12947 -0.17569,-0.322086 -0.49036,-0.814564 -0.84879,-0.933097 l -0.29421,-0.0508 c -0.82056,-0.02716 -1.1617,0.523522 -1.26295,1.211792 -0.0991,0.678039 0.21802,0.590902 0.0896,1.649239 -0.30233,0.55668 -2.4585,0.83537 -1.07844,3.55741 2.32375,-0.0413 1.66476,-1.23825 2.13854,-2.88361 2.97921,0.0681 1.09326,1.36878 2.27577,3.48192 l 3.83328,0.13829 0.0328,0.97825 -1.93181,1.92088 c 1.74167,0.96872 3.6509,2.12407 3.12949,4.73956 -2.01012,0.24236 -3.98956,-0.16121 -5.72241,0.25224 -0.26317,0.52176 -0.0921,0.17956 -0.0737,0.60078 -0.83714,0.35066 -0.29527,1.05481 -0.0706,1.7212 0.5073,1.50495 -0.24235,2.46557 0.89112,4.08305 0.49318,0.70344 0.75847,0.47167 1.76707,0.66323 1.2139,0.23036 2.17346,1.58785 1.47884,3.37608 -0.37536,0.96696 -2.03024,1.6697 -2.47297,2.71568 -0.61101,1.44428 0.41733,2.43382 -0.64312,3.93136 -0.96731,1.36737 -2.29764,1.29998 -3.01695,2.15864 -0.12524,0.14958 -3.38773,6.23006 -3.3842,6.69185 -0.16792,0.23495 -0.10195,0.0483 -0.2099,0.46143 -0.25859,0.99095 0.2921,1.96039 0.55774,2.84268 0.29527,0.98143 0.56691,2.23626 0.30551,3.51543 -0.20744,1.01777 -1.61643,4.2725 0.23918,6.26463 l 2.24719,1.76812 c 1.42134,0.97826 1.55681,2.36785 2.40877,3.53448 0.45826,0.62724 1.69862,1.06539 2.32833,1.5113 3.55953,2.51919 3.44064,2.5841 6.73841,1.34762 1.28164,-0.48049 2.39642,-0.22684 3.8414,-0.17004 2.68675,0.10477 6.27979,-4.31448 8.78875,-1.7071 0.77117,0.80151 0.80645,1.74661 2.17029,1.46227 0.86289,-0.18027 1.15429,-0.44873 2.30858,0.17921 0.39793,0.21661 0.66428,0.22048 0.83537,1.17546 l 0.0257,2.49131 c -0.0434,1.19345 -0.30938,1.93569 -0.28998,3.05576 0.0473,2.75661 2.0133,1.65559 3.33904,6.8132 0.30163,1.17263 0.0261,1.89865 0.15664,3.08928 0.28116,2.55481 1.7466,1.12324 -0.42228,4.79318 -1.78153,3.01414 -0.68157,1.36349 -1.69686,3.46781 -0.19756,0.40993 -0.0413,-0.0709 -0.22366,0.54504 -2.7e-4,0.001 -0.13124,0.62089 -0.133,0.63324 -0.49671,3.34751 1.67746,2.7686 0.1591,8.757 -0.28645,1.13122 -0.51823,1.59011 -0.2286,2.61094 0.25259,0.89038 0.31821,3.49074 -0.0917,4.51115 l -0.50129,1.04249 0.92039,0.66876 c 0.48719,0.22765 0.55845,0.17047 1.06575,-0.0322 1.07526,-0.4294 0.19155,-0.29284 2.10008,-0.7954 2.04964,-0.5399 1.54517,-0.0985 3.71757,-1.85237 0.58385,-0.47113 1.04422,-0.84624 1.5166,-1.36384 l 0.83149,-0.69285 c 0.64065,-0.52575 0.22331,-0.21513 0.58597,-0.76758 l 3.46745,-4.76804 c 0.51858,-1.20579 0.3429,-0.94368 1.23543,-1.81857 2.90442,-2.84621 0.85619,-3.30623 3.77437,-7.50993 2.30822,-3.32493 3.0106,-3.02754 3.92147,-6.02156 0.60643,-1.9939 1.06998,-2.21792 1.04705,-5.77674 -0.0392,-6.1087 1.4799,-8.99689 2.91641,-14.15909 0.39088,-1.40405 1.16558,-2.81904 1.35643,-4.18394 0.26741,-1.91559 0.91864,-8.49101 0.22366,-10.1219 l -1.3469,-0.005 c -0.54716,0.65369 -0.42439,1.06962 -1.15394,1.39029 -1.15464,-1.15957 -0.36971,-2.87407 0.26494,-3.95569 1.45944,-2.48603 0.40111,-2.41265 1.27353,-3.98463 0.66816,0.036 0.27587,-0.12559 0.7694,0.18768 0.35455,0.93098 0.65864,3.15454 0.88054,4.36916 0.15346,0.84066 0.26846,1.46473 0.39052,2.28458 0.11148,0.74895 0.13018,1.70956 0.20849,2.27471 0.23813,1.72297 0.38171,3.56729 0.44345,5.46418 z M 123.14206,92.206561 c 1.05904,-0.105833 1.6644,0.05045 2.66523,-0.2032 1.72791,-0.43815 1.32821,-0.110419 2.165,0.206375 -0.34819,0.304095 -0.23777,1.961798 -2.43558,2.070806 -2.28847,0.113947 -2.25601,-1.724025 -2.39465,-2.073981 z m 8.33473,-7.900105 c 0.0921,-0.891822 0.30832,-0.899583 1.77694,-1.551516 0.97296,0.832202 0.75565,0.331258 1.54269,0.952852 -0.0113,1.192036 -0.2413,0.779639 -0.98107,1.510595 -0.48719,-0.219781 -0.59902,-0.271639 -1.22167,-0.437092 l -1.11689,-0.474839 m 11.94611,36.450414 -0.0395,0.80433 c 4.05976,1.48308 2.85644,1.04598 6.85659,-0.92146 1.00577,-0.49459 2.67229,-0.76447 3.95569,-0.88441 1.17793,-0.10971 3.27696,-0.73731 4.07953,-0.68368 1.45697,1.90076 0.42297,4.16983 3.8361,4.54695 2.16641,0.23918 1.65735,0.0261 3.17041,1.05269 0.82691,0.56056 2.11526,0.87383 3.37538,0.86959 0.12947,-1.5621 -0.8763,-3.74438 3.53766,-2.38865 2.17981,0.66957 3.19264,0.55456 5.14949,-0.23848 0.0649,-0.0265 0.77753,0.0296 0.73943,-1.18181 l -0.6343,-2.24331 c -0.43568,-1.1804 -0.58596,-1.64959 -1.50354,-2.47897 -1.30316,0.0621 -0.50165,0.17145 -1.3462,0.4311 -1.70003,-1.65983 -2.93722,1.42416 -5.92561,-2.80459 -0.58525,-0.82761 -0.68403,-1.37724 -1.76671,-1.60055 -0.0409,0.0459 -0.12488,0.0445 -0.1344,0.12735 l -0.133,0.3496 c 0.21519,1.74202 2.63137,2.00625 0.29669,3.75109 -0.65899,-0.77082 -1.37055,-1.45344 -2.21263,-2.16323 -2.93299,-2.47227 -1.57797,-2.94005 -4.95652,-3.89361 -1.51342,-0.42721 -2.0888,-1.43581 -3.20323,-1.08515 -0.22331,2.53224 7.85495,2.76402 4.76638,5.6441 -1.50071,-1.56845 -3.14783,-1.86091 -5.66914,-3.31823 -0.95179,-0.55033 -1.54128,-1.67005 -3.17253,-1.3014 -1.82103,0.41204 0.56304,0.89218 -3.33198,1.15499 -0.45297,1.32186 -0.25788,1.415 -1.26542,2.37984 -1.27811,1.22379 -0.48295,1.11796 -0.6103,2.6162 -0.1397,1.64183 -1.33527,2.45851 -2.71674,2.82223 -1.06222,0.2794 -0.38312,0.13828 -1.14159,0.63747" /><path
           id="path11"
           style="fill:#57a926;fill-opacity:1;fill-rule:evenodd;stroke:none;stroke-width:0.0352777"
           d="m 131.47679,84.306456 1.11689,0.474839 c 0.62265,0.165453 0.73448,0.217311 1.22167,0.437092 0.73977,-0.730956 0.96978,-0.318559 0.98107,-1.510595 -0.78704,-0.621594 -0.56973,-0.12065 -1.54269,-0.952852 -1.46862,0.651933 -1.68487,0.659694 -1.77694,1.551516 z M 83.162811,98.671214 c -0.478014,-0.265289 -1.580091,-3.088569 1.588559,-5.034139 0.767998,-0.470958 1.640768,-0.948972 2.542823,-1.28905 0.887235,-0.334433 2.281766,-0.582789 3.07481,-0.899583 0.494948,0.424039 0.531635,0.935567 1.585383,0.379236 0.912636,-0.481894 0.652286,-0.722136 1.49225,-1.212497 0.25894,-0.150989 3.405011,-1.428044 3.653015,-1.484136 0.417687,0.407105 0.137229,-0.0575 0.23495,0.710142 0.428977,-0.152753 1.721554,-0.584553 1.485546,-1.229431 L 98.39258,88.124217 c 0.578908,-0.329142 0.632531,-0.434975 0.832556,-1.04528 -2.36996,-0.356306 -2.788002,1.007886 -4.587523,1.62948 -3.685116,1.273175 -1.17475,1.839031 -4.078816,2.015067 l 0.770821,-1.032581 c -3.383492,0.672747 -1.243542,0.28822 -3.268134,0.892528 -4.956881,1.479197 -4.385381,2.367492 -6.498521,4.412544 0.133705,0.716139 0.254,0.180975 0.276932,1.534936 0.0141,0.827617 -0.224719,0.660048 0.259643,1.197681 0.195088,-0.367242 0.03105,-0.30727 0.146757,-0.62865 l 0.348191,-0.668867 c 0.128059,1.96462 0.02858,1.610431 -0.861483,2.785886 -0.485317,0.64135 -1.175985,1.534579 -0.787117,2.342089 0.61849,-0.19191 0.358704,0.0212 0.782884,-0.64876 z M 186.94968,190.81923 c 0.89535,-0.76411 2.45533,-4.22663 3.0353,-5.53473 0.32385,-0.7313 0.72884,-1.26259 0.96308,-2.09832 l 0.51894,-1.58468 c 0.92427,-2.5721 2.17099,-4.72545 2.17099,-7.54344 l -0.133,0.55986 -1.42346,-0.0416 c -0.0758,0.54716 -0.45331,1.52506 -0.66216,2.03659 -0.82374,2.01965 0.39441,1.09502 -1.2065,2.60138 -0.45155,0.42474 -0.52952,0.70661 -0.89888,1.59067 l -0.92145,2.90019 c -0.74683,1.85102 -2.26801,4.15113 -2.24049,5.20523 0.67768,0.4752 0.79057,-0.0914 1.07844,0.65264 0.18627,0.48084 -0.14041,0.69356 -0.28081,1.25624 z m -89.080621,34.42272 c -0.277989,0.46468 -0.175683,0.14799 -0.192616,0.89076 0.5969,0.13794 2.530117,1.10078 4.261557,1.51653 8.86319,2.12824 11.01725,2.48957 20.73874,2.49191 2.38866,8e-4 9.51865,-0.56072 11.60533,-1.07873 l 6.93597,-1.51433 c 0.69709,-0.14965 1.0922,-0.18975 1.72332,-0.38915 l 4.68136,-1.65241 c 0.53163,-0.21181 4.67113,-1.98935 4.9149,-2.407 0.0233,-0.04 0.38064,-0.20617 -0.0533,-0.7239 -0.81069,-0.0152 -4.5265,1.57702 -5.65045,1.97347 -4.47498,1.57815 -7.72583,2.35494 -12.43541,2.76423 -1.49366,0.12981 -2.08386,0.23771 -3.42583,0.41051 l -6.69607,0.76799 c -3.43006,0.52971 -7.43514,0.44248 -10.801,0.0945 -8.82262,-0.91226 -8.53828,-2.38513 -11.7602,-3.36571 l -0.6738,0.65236 c -0.0148,-0.0325 -0.0617,0.0759 -0.0956,0.11162 -1.579744,-0.0105 -1.776242,-0.55122 -3.076931,-0.54268 M 123.14206,92.206561 c 0.13864,0.349956 0.10618,2.187928 2.39465,2.073981 2.19781,-0.109008 2.08739,-1.766711 2.43558,-2.070806 -0.83679,-0.316794 -0.43709,-0.644525 -2.165,-0.206375 -1.00083,0.253648 -1.60619,0.09737 -2.66523,0.2032 m 47.01751,14.781389 c 1.276,1.14229 4.38538,1.84926 4.35116,3.79448 l 0.9391,-0.0589 c 0.75882,-1.99144 -1.57304,-3.09422 -2.77531,-3.71299 -0.98566,-0.5073 -1.50283,-0.5461 -2.06939,-1.37195 -0.40464,-0.58985 -0.74718,-1.50248 -1.78999,-1.31481 -0.78141,1.50001 1.20403,0.91158 1.34443,2.66418 M 52.868938,184.9596 c -0.575769,0.21519 -0.58554,0.26493 -0.961602,0.51505 0.219781,0.93592 3.163958,6.91162 4.038459,8.20773 1.05477,-0.0868 0.80204,-0.55704 1.496272,-0.19085 -0.101142,-0.56586 -0.336092,-0.95744 -0.345052,-1.53106 -0.01115,-0.69779 0.239501,-0.7119 0.0182,-1.3395 -0.255234,-0.7246 -1.024149,-1.69262 -1.422964,-2.2225 -1.959293,-2.60491 -2.116102,-4.35222 -2.823316,-3.43887" /></g><path
         id="path111"
         style="font-size:17.6389px;line-height:1.3;font-family:'Incised901 Nd BT';-inkscape-font-specification:'Incised901 Nd BT, Normal';letter-spacing:0.343958px;baseline-shift:baseline;display:inline;overflow:visible;vector-effect:none;fill:#333333;fill-opacity:1;stroke-width:0.155556;enable-background:accumulate;stop-color:#000000"
         d="m 28.492684,9.8838526 -0.02178,0.00496 c -0.932717,0.0052 -1.706193,0.1209034 -2.318505,0.4917464 l -0.0025,0.0012 c -0.243325,0.148085 -0.420684,0.347497 -0.561988,0.56634 -0.102931,-0.128659 -0.212745,-0.253648 -0.349124,-0.359363 -0.660717,-0.51501 -1.542924,-0.6993643 -2.581505,-0.6993643 -1.039163,0 -1.922563,0.1841103 -2.58343,0.6998443 -0.01583,0.01236 -0.02518,0.02906 -0.0405,0.04178 v -0.616445 h -3.099985 -0.586351 -3.097587 v 5.657965 h 3.096945 0.586993 3.099988 V 15.05611 c 0.01608,0.01339 0.02562,0.03119 0.04226,0.04418 h 1.56e-4 v 1.55e-4 l 1.56e-4,1.56e-4 1.55e-4,1.56e-4 h 1.56e-4 l 0.0019,0.0013 c 0.660666,0.512989 1.542126,0.69568 2.579109,0.69568 1.038543,0 1.920465,-0.182398 2.581506,-0.69568 0.02261,-0.01758 0.03644,-0.04155 0.05811,-0.05987 v 0.366248 c -3.11e-4,2.96e-4 -6.23e-4,6.85e-4 -0.0012,9.65e-4 -0.0078,0.0057 -0.01459,0.01253 -0.02224,0.01841 -0.03918,0.03011 -0.07688,0.06186 -0.112374,0.0962 -0.01428,0.0138 -0.02689,0.02894 -0.0405,0.04338 -0.02676,0.02837 -0.05297,0.05709 -0.077,0.08772 -0.01403,0.0179 -0.02651,0.03662 -0.03954,0.05523 -0.02082,0.02974 -0.04066,0.05983 -0.05875,0.09124 -0.01936,0.03359 -0.03848,0.06718 -0.05443,0.102447 -0.0012,0.0025 -0.0025,0.005 -0.0037,0.0075 -0.01976,0.04458 -0.0359,0.09069 -0.04978,0.137503 -0.0022,0.0073 -0.0046,0.01455 -0.0066,0.02193 -0.01235,0.04508 -0.02159,0.091 -0.028,0.137664 -0.0019,0.01459 -0.0039,0.02914 -0.0053,0.04386 -9.34e-4,0.01113 -0.0022,0.02226 -0.0028,0.03346 -9.33e-4,0.01353 -0.0012,0.02704 -0.0016,0.04066 -0.02899,-0.03341 -0.06164,-0.0646 -0.09829,-0.093 -0.196336,-0.152155 -0.445257,-0.197211 -0.703044,-0.197211 h -1.877344 -0.113655 -1.721911 l -0.154791,0.223143 -0.0091,-0.223143 h -1.789622 -0.0429 -1.224563 -0.30542 -1.4738 l -0.118614,0.36897 c -0.04013,-0.05983 -0.07117,-0.124717 -0.131873,-0.17176 -0.196134,-0.152003 -0.444619,-0.197211 -0.702406,-0.197211 l -2.104646,3.11e-4 -0.846312,2.645698 h 1.782901 l 0.137345,-0.43268 h 0.539127 c 0.278287,0 0.517444,-0.02441 0.727376,-0.109489 h 0.0016 l 0.0285,-0.01265 h 6.23e-4 l 0.0012,-6.23e-4 c 0.03616,-0.01601 0.04948,-0.05452 0.08228,-0.07444 l -0.0157,0.07684 0.102289,-0.07684 c 0.04788,0.226589 0.189249,0.427333 0.410109,0.531765 l 0.02546,0.02545 h 0.03458 c 0.261173,0.101229 0.576197,0.127739 0.97757,0.127739 0.278944,0 0.520535,-0.01719 0.732176,-0.05859 h 0.0012 l 0.0093,-0.0021 c 0.0019,-3.11e-4 0.0036,-9.33e-4 0.0053,-0.0012 0.155837,-0.03082 0.286712,-0.09659 0.41811,-0.160874 l -0.0533,0.167597 h 1.572405 0.162795 0.689755 0.224426 1.281389 0.11125 1.459392 l 0.137823,-0.432679 h 0.539129 c 0.152052,0 0.292408,-0.0074 0.422756,-0.02801 0.0025,0.01364 0.0049,0.02732 0.0077,0.04098 0.021,0.102778 0.05417,0.206125 0.09861,0.307661 0.04442,0.101498 0.100193,0.201195 0.166157,0.296618 0.132004,0.190955 0.305151,0.364896 0.512076,0.50247 l 0.0072,0.007 0.01216,0.0067 c 0.104887,0.06737 0.214287,0.124446 0.326552,0.17224 h 1.55e-4 c 0.112218,0.04776 0.227214,0.08635 0.343359,0.116373 h 1.56e-4 c 0.232335,0.06005 0.469121,0.08644 0.696481,0.08644 0.268968,0 0.517255,-0.05364 0.75619,-0.121016 l 0.0074,0.01023 h 3.39052 L 29.5981,18.711362 h 1.206959 0.02608 1.5676 l 0.05379,-0.166315 0.117332,0.166315 h 1.230007 0.615964 0.97709 l 0.05443,-0.166956 0.116693,0.166956 h 1.233686 0.612764 0.989255 l 0.127578,-0.388338 c 0.06929,0.09592 0.149782,0.186362 0.263161,0.247954 0.282255,0.153336 0.632831,0.197851 1.061769,0.197851 0.193041,0 0.394618,-0.01069 0.604439,-0.03137 0.06542,-0.0062 0.129105,-0.01652 0.19417,-0.02609 h 1.84901 l 0.202656,-0.28317 h 0.214178 l -0.0037,0.28317 h 1.569364 0.02608 1.574805 l 0.425957,-1.308602 h 0.107568 l -0.427717,1.308602 h 1.815076 l 0.127098,-0.386578 c 0.06639,0.09432 0.144331,0.182271 0.252437,0.244112 l 0.0016,0.0016 0.01951,0.01008 h 1.56e-4 l 1.55e-4,1.56e-4 h 1.54e-4 l 0.0012,4.66e-4 c 0.295479,0.152927 0.667397,0.190487 1.149008,0.190487 0.340151,0 0.620142,-0.02032 0.856233,-0.07315 h 0.0028 l 0.01744,-0.0042 c 0.135063,-0.03214 0.235513,-0.11319 0.350882,-0.17416 l -0.06227,0.191127 h 1.764814 l 0.0285,-0.08404 0.02289,0.08404 h 1.695821 l 0.86824,-2.645057 h -1.7805 l -0.0043,0.01393 -0.0031,-0.01393 h -1.726715 l -0.130139,0.397463 c -0.05351,-0.07117 -0.117455,-0.131819 -0.192889,-0.182644 v -0.09861 h -0.139743 c -0.142181,-0.06188 -0.293849,-0.110066 -0.461011,-0.136703 h -6.22e-4 l -0.01153,-0.0019 h -0.01328 c -0.180309,-0.02729 -0.382664,-0.04114 -0.619488,-0.04114 h -0.37393 l 0.01506,0.01505 c -0.03051,0.0022 -0.06679,9.34e-4 -0.0962,0.0037 -0.138093,0.01233 -0.268911,0.03109 -0.39314,0.05811 -6.23e-4,1.71e-4 -0.0016,3.42e-4 -0.0025,6.53e-4 l -0.0048,0.0013 c -0.122998,0.02847 -0.233046,0.08448 -0.341759,0.141666 l 0.05138,-0.156712 H 47.353582 47.166619 44.679552 44.481699 43.71991 l -0.245553,-1.56e-4 h -1.082899 l -0.416189,0.570502 0.136699,-0.418592 -0.405306,-0.0762 c -0.234289,-0.04384 -0.46193,-0.07639 -0.682555,-0.09812 -0.219334,-0.02175 -0.433659,-0.03266 -0.642534,-0.03266 -0.152633,0 -0.297495,0.0053 -0.434921,0.01761 -0.13696,0.01233 -0.267454,0.03113 -0.392018,0.05683 -0.122245,0.02521 -0.231008,0.08122 -0.338877,0.137343 l 0.05138,-0.156712 H 37.44982 l -0.0962,0.294055 C 37.32782,16.326755 37.3408,16.284395 37.304,16.255697 37.11574,16.108842 36.877328,16.06633 36.636011,16.06633 h -2.184044 l -0.09556,0.291014 c -0.02524,-0.0326 -0.01209,-0.07373 -0.04786,-0.101647 -0.188056,-0.146641 -0.425399,-0.189321 -0.666719,-0.189321 H 31.59753 31.56984 29.993754 l -0.196732,0.600755 h -0.442604 c 0.0077,-0.04938 0.01905,-0.09673 0.02512,-0.146146 0.0058,-0.04662 0.0068,-0.09508 -0.0042,-0.149028 -0.01053,-0.0515 -0.02568,-0.102069 -0.0437,-0.15191 -0.0016,-0.0046 -0.0031,-0.0093 -0.0048,-0.01393 -0.0081,-0.02156 -0.01924,-0.0422 -0.02865,-0.06339 -0.01561,-0.03521 -0.03131,-0.07028 -0.05026,-0.104368 -0.01187,-0.02134 -0.02565,-0.04174 -0.03874,-0.06259 -0.01989,-0.0317 -0.03997,-0.06317 -0.06243,-0.09364 -0.01475,-0.01999 -0.03051,-0.03916 -0.04626,-0.05859 -0.01434,-0.01769 -0.02714,-0.03627 -0.04226,-0.05346 0.545161,-0.06444 1.025471,-0.205309 1.436658,-0.460532 0.03427,-0.02127 0.04668,-0.061 0.07924,-0.08404 v 0.447085 h 6.132903 v -1.773354 -0.552894 -0.751386 -0.540251 -2.040138 h -6.132903 v 0.06771 C 30.239056,10.02099 29.906479,9.9704185 29.578352,9.938854 29.220872,9.902534 28.871192,9.883949 28.529231,9.883949 Z m 20.712255,0.00545 c -0.800164,0 -1.469835,0.1643904 -2.054705,0.4501274 l 0.09268,-0.324791 H 43.92859 43.489986 41.672671 41.258238 37.855071 l 1.620747,5.657964 h 2.976091 0.196569 2.981375 l 0.388499,-1.362547 c 0.149597,0.29777 0.332878,0.577808 0.604917,0.790283 h 1.56e-4 l 1.55e-4,1.56e-4 1.56e-4,1.56e-4 1.55e-4,1.55e-4 0.0019,0.0013 c 0.660645,0.512968 1.54212,0.69568 2.579106,0.69568 0.969912,0 1.784837,-0.185177 2.429118,-0.624287 h 0.06051 l 0.0914,-0.07139 h 6.22e-4 c 0.01933,-0.01502 0.0232,-0.0395 0.04178,-0.05506 v 0.625568 h 3.431018 0.242513 2.576707 0.969884 3.448467 0.318227 2.916702 c 0.622986,0 1.165794,-0.06552 1.641399,-0.242032 0.473671,-0.175795 0.88865,-0.472556 1.209516,-0.863918 l 0.0048,-0.0061 3.11e-4,-3.11e-4 c 1.56e-4,-2.65e-4 3.11e-4,-5.29e-4 6.23e-4,-8.09e-4 l 0.0025,-0.0026 0.0022,-0.0035 c 0.203008,-0.254286 0.358669,-0.54259 0.461334,-0.853033 0.103538,-0.313073 0.151749,-0.643113 0.151749,-0.979491 0,-0.802396 -0.285593,-1.554076 -0.882006,-2.042538 C 67.735673,10.1963 66.95526,10.01461 66.075934,10.01461 h -3.919753 v 2.611774 h -0.734417 v -2.611761 h -3.683775 v 0.305579 c -0.363993,-0.194753 -0.767317,-0.305579 -1.199113,-0.305579 h -4.710009 v 0.629249 c -0.01868,-0.01561 -0.02298,-0.03999 -0.04242,-0.05506 -0.660693,-0.514994 -1.542928,-0.6993644 -2.581508,-0.6993644 z m -18.350686,2.7127674 0.06051,0.008 v 0.06707 c -0.01639,-0.02812 -0.04223,-0.0483 -0.06051,-0.07508 z m 29.94226,3.400765 0.0157,0.01585 c -0.02348,0.0019 -0.05162,8.71e-4 -0.07443,0.003 -0.110083,0.01044 -0.213121,0.02887 -0.314544,0.04962 l 0.0032,-0.0048 h -1.697594 -0.249876 -1.119873 -0.271004 -1.477963 l 0.0042,2.645058 h 1.72127 0.0048 1.585688 l 0.328471,-0.579628 h 0.03218 c 0.05159,0.14139 0.137891,0.268238 0.266845,0.36897 v 0.03217 l 0.07972,0.0429 6.22e-4,6.23e-4 c 0.285956,0.157136 0.644207,0.195449 1.101149,0.195449 0.330685,0 0.603114,-0.0215 0.834302,-0.07876 h 6.23e-4 l 0.0019,-6.23e-4 c 0.173207,-0.04376 0.312598,-0.139383 0.449489,-0.235948 l -0.07876,0.254677 h 1.744321 l 0.03874,-0.125818 0.08276,0.125818 h 1.312286 0.45621 1.842288 0.04418 l 1.620109,6.23e-4 c 0.01917,0 0.0529,1.55e-4 0.0986,0.0012 h 6.23e-4 c 0.04967,9.33e-4 0.0876,0.0012 0.116212,0.0012 0.102416,0 0.197576,-0.004 0.286694,-0.01216 0.08155,-0.0075 0.160748,-0.02026 0.23835,-0.0357 h 0.0098 l 0.01633,-0.0035 c 0.14645,-0.03146 0.284216,-0.08684 0.407708,-0.164076 l 0.0025,-0.0019 c 0.0012,-9.33e-4 0.0025,-0.0019 0.0038,-0.0026 l 0.0086,-0.0048 0.0019,-0.0021 c 0.115878,-0.07596 0.217747,-0.170497 0.30622,-0.278529 0.07042,-0.08506 0.125383,-0.184818 0.176562,-0.291014 l 0.01041,-0.01024 0.01087,-0.02481 6.22e-4,-0.0012 c 0.04988,-0.109984 0.08994,-0.23179 0.126938,-0.359366 l 0.02178,-0.02177 v -0.05138 c 0.02054,-0.08082 0.03805,-0.159804 0.04962,-0.235469 0.01403,-0.0852 0.0224,-0.166754 0.0224,-0.246833 0,-0.18782 -0.03676,-0.375909 -0.153674,-0.534806 -0.117034,-0.159081 -0.292513,-0.256643 -0.481018,-0.312784 h -1.55e-4 l -0.004,-0.0019 -0.01328,-0.0037 h -6.22e-4 c -0.08706,-0.0232 -0.168479,-0.0302 -0.263802,-0.03682 h -0.0012 c -0.09987,-0.0077 -0.20918,-0.01153 -0.330873,-0.01153 H 68.02408 l -0.388976,1.263781 h -0.549375 l 0.389621,-1.263781 h -1.749608 l -0.113812,0.36897 C 65.5749,16.374299 65.54558,16.310183 65.487394,16.262 65.305483,16.11135 65.070493,16.065426 64.836374,16.065429 h -2.078405 l -0.145188,0.469496 C 62.542311,16.40388 62.438116,16.28975 62.302879,16.214137 l -0.03011,-0.02994 h -0.04722 c -0.136113,-0.06257 -0.280582,-0.111638 -0.440364,-0.138624 l -0.180881,-0.03089 v 0.01873 c -0.136267,-0.01447 -0.26869,-0.03073 -0.4338,-0.03073 z m -10.948718,1.383676 v 1.56e-4 l -0.01153,0.01504 h -0.01567 c 0.0019,-0.0028 0.0047,-0.01008 0.0066,-0.01265 0.0025,-9.34e-4 0.01244,-0.0016 0.02066,-0.0026 z m -5.177102,0.01649 h 0.02608 l -0.02608,0.081 z m -4.704088,0.292295 c 0.0025,0.01092 0.0037,0.01799 0.0038,0.01857 -1.07e-4,-1.55e-4 -6.22e-4,-0.0012 -0.0016,-0.0032 -9.33e-4,-0.0031 -0.0019,-0.0079 -0.0025,-0.01537 z m 25.246984,0.03009 -0.02658,0.08724 -0.04354,-0.05507 c 0.0241,-0.0093 0.0467,-0.02109 0.07011,-0.03217 z"
         sodipodi:nodetypes="ccccccsscccccccccccccccccscccsssssssssssssscsscccccccccccscccccscccccccccccsccccccccccccccscssscccccccsccccccccccccccccccsscccccccccccccccccccccsccscccccccccccccccccccscccccccccccccccccccscscccccscccsccccccssccscsscsccccccccccccccccccccccccccccccccsccccccccccccssccccccssssccccccscccccccccccccccccccccccccccccscccccccccccccssscccsccccccccccccccsscccccccsccccccscccccccccsccccccccccccccccccc" /><path
         id="path112"
         style="font-size:13.9355px;line-height:1.3;font-family:'Incised901 NdIt BT';-inkscape-font-specification:'Incised901 NdIt BT, Normal';baseline-shift:baseline;display:inline;overflow:visible;vector-effect:none;fill:#0091d3;fill-opacity:1;stroke-width:0.155556;enable-background:accumulate;stop-color:#000000"
         d="m 26.954054,15.200538 c -0.550251,0 -1.025232,0.06798 -1.407525,0.271966 -0.37889,0.201534 -0.635479,0.624587 -0.547612,1.054885 0.01917,0.09383 0.07394,0.175897 0.11333,0.263162 -0.22068,0.0828 -0.415415,0.186169 -0.580107,0.319186 -0.33105,0.267376 -0.502256,0.694085 -0.414751,1.122597 0.07379,0.361384 0.329311,0.748619 0.706566,0.994859 l 0.0032,0.0018 0.0025,0.0022 c 0.38,0.244095 0.834272,0.343199 1.259298,0.343199 0.301538,0 0.58733,-0.04673 0.84695,-0.135423 l 0.01744,0.02449 h 2.942475 l -0.750744,-1.080018 0.342398,-0.272125 0.41363,-1.260901 h -0.746103 c 0.04271,-0.142027 0.06729,-0.291612 0.03537,-0.447886 -0.08053,-0.394349 -0.486495,-0.7899 -0.901694,-0.967485 h -1.56e-4 -1.55e-4 -1.56e-4 c -0.418517,-0.1798 -0.856659,-0.23451 -1.33393,-0.23451 z" /><path
         id="path113"
         style="font-size:13.9355px;line-height:1.3;font-family:'Incised901 NdIt BT';-inkscape-font-specification:'Incised901 NdIt BT, Normal';baseline-shift:baseline;display:inline;overflow:visible;vector-effect:none;fill:#0091d3;fill-opacity:1;stroke-width:0.155556;enable-background:accumulate;stop-color:#000000"
         d="m 28.52934,10.224488 c -0.932964,0 -1.658651,0.119091 -2.201012,0.447726 l -6.23e-4,6.23e-4 h -6.22e-4 c -0.360321,0.219258 -0.568535,0.576183 -0.69936,0.971005 -0.142317,-0.305505 -0.331839,-0.580285 -0.598357,-0.786601 -0.574577,-0.447863 -1.374573,-0.627329 -2.372294,-0.627329 -0.998314,0 -1.798763,0.179519 -2.373411,0.62797 -0.263916,0.205728 -0.44983,0.479814 -0.590993,0.78356 v -1.286353 h -3.005062 v 1.422415 h -0.09525 v -1.422417 h -3.002539 v 4.97685 h 3.002503 v -1.256578 h 0.09509 v 1.256578 h 3.005064 v -1.287472 c 0.141586,0.305369 0.328363,0.580896 0.593391,0.787722 h 6.22e-4 l 6.22e-4,6.54e-4 c 0.5745,0.446083 1.373535,0.624287 2.369889,0.624287 0.998024,0 1.798044,-0.178026 2.372774,-0.624287 0.271158,-0.210784 0.465444,-0.490186 0.607959,-0.80341 v 1.182144 l 0.02147,0.0037 c 0.377648,-0.149815 0.811729,-0.198491 1.28843,-0.198491 h 0.06355 l 0.0054,0.0048 c 0.465752,0.0053 0.911095,0.06114 1.340617,0.245073 0.119082,0.05071 0.237178,0.1157 0.34864,0.192568 0.646574,-0.04093 1.182155,-0.173746 1.609381,-0.438922 0.256789,-0.159386 0.456969,-0.380617 0.599475,-0.635172 v 0.946836 h 5.45179 v -1.43266 -0.553054 -0.751386 -0.540249 -1.699342 h -5.45179 v 0.134285 l -0.3121,-0.05939 c -0.357339,-0.06815 -0.710566,-0.118958 -1.058728,-0.15239 -0.346976,-0.03525 -0.685033,-0.0533 -1.014548,-0.0533 z m 20.67528,0.0055 c -0.998312,0 -1.798763,0.179516 -2.373415,0.62797 -0.13131,0.102361 -0.19373,0.261095 -0.294533,0.389618 l 0.254677,-0.892408 h -3.025714 l -0.05747,0.268604 -0.05619,-0.268604 h -2.121138 l -0.06787,0.302538 -0.06531,-0.302538 h -3.090865 l 1.425937,4.976851 h 2.657705 l 0.162795,-0.575946 0.158471,0.575946 h 2.660906 l 0.646058,-2.266964 c 0.05015,0.724717 0.297046,1.363056 0.814936,1.767214 h 6.22e-4 l 6.22e-4,6.53e-4 c 0.574502,0.446083 1.373376,0.624287 2.369731,0.624287 0.998023,0 1.797564,-0.178026 2.372292,-0.624287 h 6.22e-4 c 0.26383,-0.205088 0.449609,-0.479155 0.591632,-0.78164 v 1.28075 h 2.991778 v -0.341277 l 0.26492,0.341277 h 2.652424 0.969727 3.448627 0.318228 2.916702 c 0.598492,0 1.101437,-0.06453 1.522781,-0.220902 0.417688,-0.155018 0.781506,-0.414964 1.064807,-0.76051 l 0.0012,-0.0018 0.0012,-0.0018 c 0.180087,-0.224005 0.317865,-0.478403 0.408991,-0.753947 0.09113,-0.27556 0.134942,-0.568804 0.134942,-0.872402 0,-0.723431 -0.251475,-1.364327 -0.75747,-1.778738 -0.506155,-0.414553 -1.19971,-0.586762 -2.032036,-0.586762 h -3.579247 v 2.611762 h -1.415694 v -2.611765 h -3.002662 v 0.718729 c -0.0708,-0.110881 -0.125573,-0.233253 -0.227464,-0.319345 -0.341749,-0.288765 -0.798037,-0.399384 -1.312285,-0.399384 h -4.369211 v 1.280909 C 52.027264,11.334422 51.84079,11.061513 51.576948,10.857269 51.002375,10.409403 50.202537,10.22994 49.204816,10.22994 Z m -26.547583,2.316588 h 1.55e-4 c 0.119462,0 0.10781,0.009 0.126299,0.0333 l 0.0025,0.0024 0.0019,0.0024 c 0.01871,0.02385 0.06771,0.128494 0.06771,0.3496 0,0.202846 -0.0438,0.302376 -0.07812,0.34672 -0.0349,0.04511 -0.02459,0.04658 -0.120376,0.04658 -0.09734,0 -0.09086,-0.0051 -0.121496,-0.04482 -0.03299,-0.04422 -0.07684,-0.144521 -0.07684,-0.348481 0,-0.221704 0.04942,-0.327532 0.06771,-0.351361 0.0201,-0.02611 0.01168,-0.03634 0.13062,-0.03634 z m 26.547583,0 h 1.56e-4 c 0.119239,1.1e-5 0.107821,0.0091 0.126295,0.0333 l 0.0019,0.0024 0.0025,0.0024 c 0.01871,0.02385 0.06787,0.128496 0.06787,0.3496 0,0.202846 -0.0438,0.302376 -0.07811,0.34672 -0.0349,0.04511 -0.02459,0.04658 -0.120374,0.04658 -0.09735,0 -0.09164,-0.0051 -0.122296,-0.04482 -0.03299,-0.04422 -0.0762,-0.144522 -0.0762,-0.348481 0,-0.221703 0.04894,-0.327532 0.06723,-0.351361 0.0201,-0.0261 0.01235,-0.03632 0.131101,-0.03634 z m 16.296943,0.157833 c 0.106823,0.02006 0.279676,0.03663 0.293415,0.04594 l 0.0012,0.0013 0.0012,0.0013 c 0.02621,0.01746 0.03634,5.29e-4 0.03633,0.143906 0,0.118695 -0.0028,0.116215 -0.07875,0.167597 l -6.22e-4,6.54e-4 -0.0012,6.53e-4 c -0.03367,0.02299 -0.172584,0.02975 -0.251796,0.0501 z m -7.423259,0.158472 v 1.32509 l -0.640135,-0.755067 c 0.169738,-0.07842 0.331858,-0.167576 0.463413,-0.295816 0.07909,-0.07709 0.118457,-0.181822 0.176722,-0.274207 z" /><path
         id="path114"
         style="font-size:9.26405px;line-height:1.3;font-family:'Incised901 NdIt BT';-inkscape-font-specification:'Incised901 NdIt BT, Normal';baseline-shift:baseline;display:inline;overflow:visible;vector-effect:none;fill:#800000;fill-opacity:1;stroke-width:0.155556;enable-background:accumulate;stop-color:#000000"
         d="m 12.330524,16.196997 -0.744663,2.325551 h 1.462272 l 0.138306,-0.432359 h 0.648138 c 0.282868,0 0.512612,-0.02739 0.700322,-0.109971 v -6.23e-4 h 6.22e-4 c 0.169706,-0.07517 0.294663,-0.2085 0.397303,-0.362727 -0.01552,0.05129 -0.03288,0.105454 -0.04114,0.145508 -0.01199,0.05732 -0.01859,0.11244 -0.01859,0.166315 0,0.217848 0.150863,0.421882 0.384017,0.5204 h 0.0012 l 6.22e-4,4.67e-4 c 0.23505,0.09759 0.542191,0.128379 0.951318,0.128379 0.279594,0 0.517454,-0.01831 0.71953,-0.05923 h 6.22e-4 c 0.201276,-0.03983 0.3779,-0.103989 0.521679,-0.198971 l 0.0012,-0.0011 0.0012,-6.22e-4 c 0.08912,-0.0607 0.160236,-0.139072 0.217059,-0.226665 l -0.138303,0.431239 h 1.414574 l 0.06163,-0.192408 0.02113,0.192408 h 0.868561 l 0.100528,-0.130941 -0.04162,0.130941 h 1.294195 0.116533 1.34574 l 0.137664,-0.432359 h 0.648136 c 0.282868,0 0.512612,-0.02739 0.700325,-0.109972 v -6.22e-4 h 6.22e-4 c 0.18524,-0.08205 0.327886,-0.221464 0.433638,-0.395862 l 6.22e-4,-6.22e-4 c 0.06111,-0.100159 0.105607,-0.213942 0.138301,-0.341597 0.03389,-0.129219 0.05171,-0.257476 0.05171,-0.383697 0,-0.193587 -0.06437,-0.373863 -0.221223,-0.495428 -0.156665,-0.121409 -0.372099,-0.165356 -0.612922,-0.165356 h -1.876065 -0.118455 -1.641074 l -0.365449,0.526963 -0.02113,-0.526963 h -1.643796 -0.04754 -1.416653 l -0.43428,1.363987 -6.22e-4,6.22e-4 c -0.01843,0.0604 -0.03995,0.0836 -0.04834,0.09172 6.22e-4,-0.0022 0.0012,-0.0031 0.0022,-0.0054 v -6.22e-4 l 0.465333,-1.450268 h -1.459073 l -0.236909,0.736979 c 0.0012,-0.02523 0.0099,-0.05111 0.0099,-0.07619 0,-0.193587 -0.0642,-0.373864 -0.221061,-0.495429 -0.156662,-0.121409 -0.372894,-0.165356 -0.613721,-0.165356 z m 1.150609,0.964764 h 0.209857 c 0.0022,0 0.0028,2.9e-5 0.0028,0 h 1.56e-4 c -6.5e-5,-2.4e-5 -1.34e-4,-1.12e-4 0.0022,0 -0.0042,0.0077 -0.0032,0.02698 -0.01199,0.03265 -0.01663,0.01039 -0.08259,0.0333 -0.209857,0.0333 h -0.01456 z m 9.66621,0 H 23.3572 c 0.0025,0 0.0032,3.5e-5 0.0034,0 -4.9e-5,-3.5e-5 -3.11e-4,-1.4e-4 0.0025,0 -0.0042,0.0077 -0.0035,0.02697 -0.01249,0.03265 -0.01663,0.01039 -0.08259,0.0333 -0.209857,0.0333 h -0.01456 z" /><path
         id="path115"
         style="font-size:9.08965px;line-height:1.3;font-family:'Incised901 NdIt BT';-inkscape-font-specification:'Incised901 NdIt BT, Normal';baseline-shift:baseline;display:inline;overflow:visible;vector-effect:none;fill:#008000;fill-opacity:1;stroke-width:0.155556;enable-background:accumulate;stop-color:#000000"
         d="m 61.169808,16.157939 9.33e-4,3.11e-4 c -0.152155,0 -0.291265,0.0054 -0.41827,0.01745 -0.126882,0.01202 -0.246072,0.03088 -0.357927,0.05683 l -0.0019,6.53e-4 h -0.0012 c -0.114761,0.0282 -0.218035,0.08038 -0.316465,0.138144 l 0.0858,-0.150469 h -1.580567 l -0.03314,0.07764 0.0085,-0.07764 h -1.359986 l -0.004,0.0112 6.23e-4,-0.0112 h -1.426897 l 0.0032,2.335796 h 1.56664 0.0047 1.495727 l 0.513196,-0.904417 c -0.0045,0.04443 -0.0085,0.08814 -0.0085,0.13062 v 0.213699 l 0.05074,-0.0045 c 0.04895,0.184045 0.139919,0.350708 0.316945,0.448527 h 6.22e-4 c 0.24565,0.134983 0.579377,0.176402 1.026872,0.176402 0.324103,0 0.585708,-0.0219 0.797648,-0.07443 h 6.22e-4 6.22e-4 c 0.210551,-0.0532 0.392506,-0.144536 0.528085,-0.275488 l 6.22e-4,-6.22e-4 6.22e-4,-6.22e-4 c 0.09718,-0.09523 0.179904,-0.203537 0.248757,-0.322868 l 6.22e-4,-6.22e-4 c 0.0409,-0.07047 0.06792,-0.15356 0.100047,-0.232106 l -0.260442,0.846469 h 1.419216 l 0.101165,-0.330232 0.218343,0.330232 h 1.229526 0.455248 1.842768 0.04482 1.619144 c 0.02054,0 0.05566,3.11e-4 0.102126,0.0011 0.04898,9.34e-4 0.08611,0.0011 0.113655,0.0011 0.09858,0 0.18937,-0.0037 0.272763,-0.01137 0.08404,-0.0077 0.165857,-0.01936 0.244913,-0.03602 h 6.22e-4 v -6.22e-4 c 0.129651,-0.02785 0.25168,-0.07585 0.359206,-0.143106 l 6.22e-4,-6.23e-4 6.22e-4,-4.66e-4 c 0.10671,-0.06782 0.200711,-0.153786 0.28381,-0.255318 l 6.22e-4,-0.0011 c 0.0677,-0.08179 0.124308,-0.178737 0.176081,-0.291975 v -4.66e-4 c 0.05186,-0.114362 0.09671,-0.240947 0.135103,-0.380495 v -4.67e-4 l 6.23e-4,-0.0011 c 0.02302,-0.08709 0.03998,-0.169823 0.05187,-0.248593 0.01276,-0.07804 0.01951,-0.151051 0.01951,-0.219782 0,-0.168595 -0.0314,-0.318507 -0.123415,-0.443565 -0.09185,-0.124848 -0.239362,-0.209415 -0.409148,-0.258519 l -0.0028,-6.53e-4 -0.0028,-6.54e-4 c -0.07175,-0.01915 -0.141122,-0.02569 -0.235149,-0.03218 -0.09488,-0.0074 -0.201066,-0.0112 -0.320306,-0.0112 h -1.613383 l -0.389618,1.264103 H 66.87535 l 0.389778,-1.264089 H 65.839994 L 65.248362,18.1412 64.901481,17.701638 c 0.160572,-0.0358 0.307349,-0.09074 0.418912,-0.188247 0.186368,-0.162875 0.267005,-0.396919 0.267005,-0.661584 0,-0.181134 -0.05664,-0.352237 -0.198811,-0.469977 -0.142078,-0.117668 -0.339374,-0.161194 -0.552735,-0.161194 h -1.964105 l -0.321427,1.043681 c 0.01363,-0.083 0.02209,-0.16474 0.02209,-0.244593 0,-0.148308 -0.02218,-0.280161 -0.08004,-0.397302 -0.0579,-0.117215 -0.157811,-0.217774 -0.283809,-0.282371 v -4.67e-4 h -6.22e-4 c -0.13177,-0.06669 -0.282539,-0.112757 -0.448686,-0.140865 h -6.22e-4 c -0.166135,-0.0282 -0.360693,-0.04066 -0.588591,-0.04066 z m -11.152175,1.56e-4 v 1.55e-4 c -0.160764,0 -0.307325,0.0055 -0.441002,0.01745 -0.133557,0.01192 -0.258617,0.0307 -0.376013,0.05635 h -0.0019 l -0.0012,6.53e-4 c -0.143545,0.03322 -0.277648,0.08852 -0.396819,0.163916 -0.103454,0.06545 -0.194364,0.15406 -0.281893,0.250194 l 0.139585,-0.425955 h -1.304758 -0.186486 -2.572705 l -0.07203,0.21802 0.0012,-0.21802 h -0.957399 v -0.01697 l -0.01234,0.01697 h -1.083378 l -0.921704,1.262341 0.08388,-0.257079 h -0.01297 l 0.290853,-0.888088 -0.232427,-0.04338 c -0.230152,-0.04306 -0.453211,-0.07573 -0.669106,-0.097 -0.214664,-0.02126 -0.423348,-0.03153 -0.62669,-0.03153 -0.148764,0 -0.28898,0.0056 -0.420994,0.01745 -0.131825,0.01187 -0.256631,0.02974 -0.374731,0.0541 -0.144426,0.02977 -0.27933,0.0844 -0.398106,0.161194 -0.101694,0.06556 -0.190381,0.156016 -0.276123,0.254196 l 0.141662,-0.432198 h -1.491244 l -0.179283,0.548252 c -0.01871,-0.147479 -0.05201,-0.295272 -0.174803,-0.39106 -0.148719,-0.116008 -0.3492,-0.157192 -0.571621,-0.157192 h -2.072474 l -0.178003,0.543129 c -0.0197,-0.145222 -0.05107,-0.291415 -0.172238,-0.385937 -0.148718,-0.116008 -0.349685,-0.157192 -0.572106,-0.157192 h -2.044779 -0.02723 -1.464034 l -0.764514,2.335795 h 1.464035 0.02608 1.454271 l 0.115573,-0.354404 0.248754,0.354404 h 1.149648 0.616445 0.864399 l 0.114934,-0.354404 0.249553,0.354404 h 1.152851 0.612443 0.876885 L 38.50784,17.88611 c 0.02788,0.225696 0.140687,0.431662 0.356485,0.548893 0.244833,0.133005 0.570439,0.179123 0.987975,0.179123 0.187645,0 0.384231,-0.01013 0.589712,-0.03042 0.107075,-0.01008 0.224635,-0.03019 0.337112,-0.04562 l -0.0136,0.01857 h 1.655641 l 0.202015,-0.28285 h 0.450768 l -0.0034,0.28285 h 1.412651 0.02546 1.462594 l 0.426755,-1.309083 h 0.433319 l -0.428675,1.309083 h 1.489324 l 0.222183,-0.676311 c 0.02961,0.234923 0.14121,0.447524 0.36305,0.562979 h 6.22e-4 c 0.255856,0.132421 0.605318,0.173679 1.078096,0.173679 0.342647,0 0.618427,-0.0216 0.839907,-0.07331 l 6.22e-4,-6.22e-4 c 0.220173,-0.05239 0.410825,-0.141223 0.554015,-0.271485 v -6.22e-4 l 6.23e-4,-6.22e-4 c 0.04975,-0.04592 0.08503,-0.104162 0.127897,-0.156072 l -0.144867,0.442443 h 1.440023 l 0.154633,-0.458772 0.126619,0.458772 h 1.465955 l 0.765792,-2.335955 h -1.454912 l -0.152068,0.461012 -0.09348,-0.461012 h -1.488045 l -0.227947,0.696479 c -0.0098,-0.105291 -0.0176,-0.210572 -0.06371,-0.298536 -0.06202,-0.118255 -0.167314,-0.218117 -0.298055,-0.28125 h -6.23e-4 l -6.22e-4,-6.53e-4 c -0.138079,-0.06582 -0.29524,-0.110883 -0.469653,-0.138624 v 6.54e-4 c -0.174166,-0.02789 -0.379229,-0.04066 -0.620289,-0.04066 z m -17.277234,1.006543 h 0.155912 c -0.03079,0.0076 -0.0444,0.01697 -0.124055,0.01697 h -0.03762 z m 2.994979,0 h 0.155912 c -0.03079,0.0076 -0.0444,0.01697 -0.124055,0.01697 h -0.03778 z m 28.265173,0 h 0.141504 c -0.02212,0.0065 -0.04101,0.01697 -0.124696,0.01697 h -0.02209 z m -23.385326,0.05138 c 0.08254,0 0.184019,0.004 0.291013,0.01008 h -0.422913 c 0.04763,-0.0029 0.07308,-0.01008 0.1319,-0.01008 z m 9.249056,0.01409 h 1.56e-4 c 0.07615,0 0.102106,0.01123 0.106448,0.01232 -6.22e-4,0.01603 -0.0031,0.04108 -0.01234,0.0778 -0.01041,0.04031 -0.02642,0.09026 -0.04866,0.148708 v 6.22e-4 h -6.22e-4 c -0.01825,0.04849 -0.03597,0.08566 -0.0501,0.109331 -0.01403,0.02348 -0.02859,0.04198 -0.04418,0.05699 -0.01224,0.01176 -0.02394,0.01898 -0.04482,0.02593 -0.02038,0.0068 -0.05222,0.01232 -0.09861,0.01232 -0.06507,0 -0.08526,-0.0078 -0.10405,-0.01297 0.0036,-0.04682 0.01122,-0.10031 0.03778,-0.173519 0.03169,-0.08806 0.06833,-0.155368 0.103888,-0.201854 0.01626,-0.0209 0.02887,-0.0299 0.0493,-0.03826 l 6.22e-4,-6.23e-4 h 6.22e-4 c 0.02283,-0.0095 0.05509,-0.01681 0.104526,-0.01681 z m 11.161459,0 c 0.06588,0 0.08567,0.0097 0.0882,0.01008 h 1.55e-4 c -3.11e-4,0.01678 -0.0033,0.04397 -0.01234,0.08228 -0.0099,0.04073 -0.02509,0.09119 -0.0461,0.149829 h -6.22e-4 v 6.23e-4 c -0.01728,0.04877 -0.0339,0.08602 -0.04738,0.10997 -0.01341,0.02379 -0.02779,0.0427 -0.04226,0.05747 -0.01112,0.01134 -0.0202,0.01662 -0.03697,0.02257 -0.01629,0.0058 -0.04277,0.0112 -0.08388,0.0112 -0.0565,0 -0.06937,-0.0064 -0.08516,-0.01072 0.0033,-0.04826 0.01028,-0.10383 0.03586,-0.178641 v -6.23e-4 c 0.03002,-0.08863 0.06501,-0.156184 0.09861,-0.202813 0.01543,-0.02106 0.02667,-0.02898 0.0429,-0.03602 h 6.23e-4 l 6.22e-4,-6.22e-4 c 0.01862,-0.0082 0.04437,-0.01456 0.08772,-0.01456 z m 8.213862,0.01008 h 0.04994 c 0.04222,0 0.07556,0.0048 0.09797,0.0088 8.4e-5,0.0025 1.55e-4,0.0052 1.55e-4,0.0082 0,0.05307 -0.01285,0.114022 -0.0429,0.185365 -0.02986,0.0709 -0.0644,0.120736 -0.09749,0.15383 -0.0052,0.0049 -0.01288,0.01132 -0.0421,0.01857 -0.01069,0.0025 -0.05746,0.0037 -0.0826,0.0062 z m -24.722739,0.0074 h 0.393619 l -0.401466,1.230165 z m -4.381698,0.05122 -0.137663,0.418113 c -0.0035,-0.0011 -0.02776,-0.0038 -0.02723,-0.0034 3.11e-4,3.12e-4 6.22e-4,7.78e-4 6.22e-4,9.34e-4 v 1.55e-4 1.56e-4 1.55e-4 h -1.55e-4 -1.56e-4 v -1.55e-4 l -1.55e-4,-1.56e-4 c -0.0012,-0.0019 -0.0048,-0.01131 -0.0048,-0.04386 0,-0.05902 0.01626,-0.130187 0.05651,-0.214179 0.04065,-0.08482 0.08383,-0.135372 0.112372,-0.157192 z m -2.99562,0.21482 h 1.56e-4 l -0.169521,0.516718 -0.273565,-0.326871 c 0.167844,-0.03482 0.321798,-0.08893 0.439721,-0.186005 0.0012,-0.0011 0.0019,-0.0027 0.0032,-0.0038 z m -3.000101,0.005 -0.166157,0.508873 -0.270845,-0.323988 c 0.167035,-0.03465 0.319363,-0.0886 0.437002,-0.184885 z" /><path
         id="path2"
         style="font-size:13.9355px;line-height:1.3;font-family:'Incised901 NdIt BT';-inkscape-font-specification:'Incised901 NdIt BT, Normal';baseline-shift:baseline;display:inline;overflow:visible;vector-effect:none;fill:#ffffff;stroke-width:0.155556;enable-background:accumulate;stop-color:#000000"
         d="m 27.076928,15.703397 c -0.484393,0 -0.85774,0.06414 -1.125317,0.206912 -0.133,0.07062 -0.235245,0.158463 -0.296461,0.268086 -0.06121,0.109623 -0.07693,0.23834 -0.05024,0.36905 0.02147,0.105151 0.07143,0.214062 0.145257,0.330304 0.05165,0.08066 0.1325,0.173125 0.209884,0.264388 -0.397516,0.08555 -0.743222,0.189943 -0.952247,0.358761 -0.240604,0.194342 -0.343488,0.461694 -0.284323,0.751444 0.05167,0.253048 0.195643,0.461048 0.418005,0.606187 h 6.22e-4 c 0.223734,0.143715 0.500927,0.212942 0.823389,0.212942 0.244758,0 0.466922,-0.03437 0.66495,-0.105224 0.161027,-0.05761 0.297116,-0.155211 0.427731,-0.260209 l 0.181431,0.254098 h 1.664382 l -0.516639,-0.743485 1.085367,-0.863341 h -1.549994 l -0.173633,0.140916 -0.111979,-0.14823 c 0.319612,-0.13155 0.591118,-0.260422 0.739949,-0.39807 0.170979,-0.158144 0.248989,-0.359619 0.206914,-0.565673 -0.04594,-0.224971 -0.221819,-0.397629 -0.487057,-0.510609 -0.266211,-0.114458 -0.605825,-0.168247 -1.020013,-0.168247 z m 0.06045,0.608036 c 0.07022,0 0.120748,0.01517 0.159728,0.04059 0.03906,0.02548 0.05498,0.04869 0.06294,0.0877 0.0042,0.02068 -6.22e-4,0.04907 -0.03754,0.09743 -0.02605,0.03285 -0.09413,0.08255 -0.155465,0.12942 -0.04178,-0.05358 -0.08863,-0.111765 -0.113745,-0.149436 v -5.6e-4 c -0.03854,-0.05885 -0.05708,-0.104248 -0.05804,-0.108923 -0.0077,-0.03757 -0.0038,-0.04292 0.01567,-0.06109 0.02159,-0.01908 0.05786,-0.03513 0.126445,-0.03513 z m -0.698147,1.507069 0.188745,0.269853 c -0.02698,0.01672 -0.05223,0.03846 -0.08103,0.0496 -0.05483,0.02043 -0.112738,0.03087 -0.176042,0.03087 -0.0562,0 -0.09661,-0.01263 -0.131916,-0.0369 -0.03563,-0.02449 -0.04913,-0.04586 -0.0557,-0.07805 -0.0074,-0.03626 -0.0012,-0.06221 0.04598,-0.110129 0.03698,-0.03747 0.123082,-0.08199 0.209969,-0.125239 z m 29.552043,0.544765 -0.0031,-1.949056 h 0.966763 l -0.07232,0.978371 c -7e-5,0.0051 -6.22e-4,0.01366 -0.0012,0.02563 -0.01081,0.142573 -0.0236,0.273194 -0.03838,0.391861 9.6e-5,-0.0017 0.0119,-0.03416 0.03542,-0.09733 0.0236,-0.06317 0.05953,-0.159217 0.107751,-0.288132 l 0.371944,-1.010383 h 0.952004 l -0.106269,0.95788 c -9.33e-4,0.0085 -0.0022,0.0222 -0.0044,0.04098 -0.01772,0.154526 -0.03543,0.286426 -0.05313,0.395703 l 0.01623,-0.04098 c 0.06002,-0.152816 0.112176,-0.279594 0.156456,-0.380333 l 0.416221,-0.973249 h 1.067132 l -1.105506,1.949056 h -1.121742 l 0.08413,-0.996299 c 0.0039,-0.03841 0.0089,-0.08793 0.01478,-0.148544 0.0059,-0.06062 0.01328,-0.130622 0.02215,-0.210019 -0.03149,0.08793 -0.06642,0.183551 -0.1048,0.286851 -0.0098,0.02732 -0.01623,0.04482 -0.0192,0.0525 l -0.392607,1.015508 z m 5.034703,-1.32669 c -0.07183,0 -0.134806,0.01195 -0.188924,0.03586 -0.05314,0.02305 -0.09692,0.05805 -0.131367,0.105007 -0.04821,0.06659 -0.08954,0.150685 -0.123976,0.252278 -0.03444,0.100739 -0.05166,0.189099 -0.05166,0.265082 -9e-6,0.05634 0.02655,0.09946 0.0797,0.129335 0.05412,0.02903 0.132346,0.04354 0.234682,0.04354 0.06396,0 0.120045,-0.0085 0.16826,-0.02563 0.04821,-0.01708 0.08905,-0.0427 0.122507,-0.07684 0.02754,-0.02817 0.05166,-0.06062 0.07232,-0.09733 0.02066,-0.03671 0.04083,-0.08281 0.06051,-0.138303 0.02264,-0.06318 0.03985,-0.119093 0.05166,-0.167754 0.01181,-0.04952 0.01772,-0.09178 0.01772,-0.126782 -1e-5,-0.06659 -0.02608,-0.116104 -0.07823,-0.148545 -0.05117,-0.0333 -0.128901,-0.04994 -0.233201,-0.04994 z m -1.462695,0.746584 c -7e-6,-0.04439 0.0031,-0.09092 0.0089,-0.139584 0.0059,-0.04866 0.01478,-0.09989 0.02658,-0.153672 0.03346,-0.14684 0.07528,-0.280022 0.12546,-0.399546 0.05018,-0.120373 0.104303,-0.217271 0.162355,-0.290691 0.08266,-0.103303 0.169741,-0.185687 0.261249,-0.247152 0.09151,-0.06147 0.192864,-0.105863 0.304054,-0.133183 0.09938,-0.02305 0.20762,-0.04012 0.324713,-0.05122 0.117093,-0.01111 0.248456,-0.01666 0.394089,-0.01666 0.218443,0 0.400481,0.01238 0.546109,0.03714 0.146612,0.02476 0.273054,0.06403 0.379325,0.117818 0.08659,0.04439 0.150553,0.108421 0.191878,0.192087 0.04133,0.08366 0.06199,0.190807 0.06199,0.321429 -6e-6,0.07427 -0.0069,0.151108 -0.02066,0.230504 -0.01279,0.0794 -0.03295,0.161782 -0.06051,0.247156 -0.04133,0.132326 -0.09298,0.251846 -0.154973,0.358561 -0.06101,0.105862 -0.133332,0.199773 -0.216969,0.281732 -0.1043,0.10074 -0.245994,0.173735 -0.425084,0.218981 -0.179085,0.04439 -0.42459,0.06659 -0.736513,0.06659 -0.428031,0 -0.730607,-0.04866 -0.907723,-0.145988 -0.176132,-0.09732 -0.264201,-0.262094 -0.264205,-0.494307 z m 2.879435,0.580106 0.600726,-1.949056 h 1.793313 c 0.179081,0 0.311919,0.03586 0.398509,0.107569 0.0866,0.07171 0.129891,0.181843 0.129891,0.330392 -3e-6,0.232214 -0.06741,0.407228 -0.20221,0.525044 -0.133823,0.116959 -0.332587,0.175439 -0.596294,0.175439 h -0.05166 l 0.639099,0.810612 H 64.020537 L 63.723869,17.91506 c -0.02066,-0.02988 -0.04085,-0.0619 -0.06052,-0.09604 -0.01868,-0.035 -0.04083,-0.07812 -0.06642,-0.129341 l -0.0088,0.03458 c -0.03247,0.124644 -0.05068,0.19337 -0.05461,0.206173 l -0.132838,0.43284 z m 1.260487,-0.988613 h 0.314384 c 0.139724,0 0.241075,-0.02049 0.304052,-0.06147 0.06298,-0.04183 0.09446,-0.107996 0.09446,-0.198492 0,-0.05037 -0.01673,-0.08665 -0.05018,-0.108847 -0.03346,-0.02305 -0.08708,-0.03458 -0.16088,-0.03458 h -0.374898 z m 1.70767,0.988613 0.600722,-1.949056 h 0.963812 l -0.389659,1.263941 h 0.919537 l -0.21254,0.685115 z m 3.418486,-0.540408 h 0.169738 c 0.117096,0 0.206147,-0.0073 0.267151,-0.02178 0.06199,-0.01537 0.111191,-0.04055 0.147597,-0.07556 0.05609,-0.05549 0.102829,-0.127631 0.140218,-0.216417 0.03739,-0.08879 0.05609,-0.17288 0.05609,-0.252278 -9e-6,-0.08025 -0.02165,-0.135317 -0.06493,-0.165196 -0.04329,-0.02988 -0.128405,-0.04482 -0.255343,-0.04482 H 69.06849 Z m -1.120264,0.540408 0.60072,-1.949056 h 1.442031 c 0.115128,0 0.215987,0.0034 0.302574,0.01023 0.08659,0.006 0.149076,0.01409 0.187452,0.02434 0.135791,0.03927 0.233204,0.09903 0.292242,0.179285 0.05904,0.08025 0.08855,0.193368 0.08854,0.339354 7e-6,0.05805 -0.0059,0.122939 -0.01772,0.19465 -0.01081,0.07171 -0.02704,0.148549 -0.0487,0.230507 -0.03641,0.132326 -0.07823,0.250567 -0.12546,0.354722 -0.04723,0.1033 -0.09741,0.186965 -0.150547,0.250995 -0.07183,0.08793 -0.150058,0.158794 -0.234682,0.212579 -0.08462,0.05293 -0.178593,0.09049 -0.28191,0.112689 -0.06888,0.01453 -0.140712,0.0252 -0.215492,0.03202 -0.0738,0.0068 -0.15695,0.01024 -0.249448,0.01024 -0.0246,0 -0.061,-3.11e-4 -0.109215,-0.0011 -0.04723,-7.78e-4 -0.08265,-0.0011 -0.106271,-0.0011 z m -38.072485,0 0.637799,-1.949056 h 1.027991 l -0.639362,1.949056 z m 1.463642,0 0.637792,-1.949056 h 1.903981 c 0.19014,0 0.331174,0.03586 0.423109,0.107569 0.09193,0.07171 0.137903,0.181843 0.137903,0.330392 0,0.232214 -0.07156,0.407226 -0.21469,0.525041 -0.142081,0.11696 -0.353112,0.175442 -0.633091,0.175442 h -0.05485 l 0.678537,0.810612 H 32.775441 L 32.46046,17.915062 c -0.02193,-0.02988 -0.04334,-0.0619 -0.06425,-0.09605 -0.01985,-0.035 -0.04335,-0.07812 -0.07052,-0.129341 l -0.0094,0.03458 c -0.03448,0.124644 -0.0538,0.19337 -0.05798,0.206176 l -0.141038,0.432837 z m 1.338272,-0.988613 h 0.33378 c 0.148351,0 0.255956,-0.02049 0.322818,-0.06147 0.06686,-0.04183 0.100292,-0.107996 0.100292,-0.198492 3e-6,-0.05037 -0.01775,-0.08665 -0.05329,-0.10885 -0.03552,-0.02305 -0.09246,-0.03457 -0.170812,-0.03457 h -0.398037 z m 1.656383,0.988613 0.637797,-1.949056 h 1.903982 c 0.190139,0 0.331173,0.03586 0.423107,0.107569 0.09193,0.07171 0.1379,0.181843 0.1379,0.330392 3e-6,0.232214 -0.07156,0.407226 -0.214686,0.525041 -0.142083,0.11696 -0.353114,0.175442 -0.633091,0.175442 h -0.05485 l 0.678539,0.810612 h -1.203503 l -0.314981,-0.448205 c -0.02193,-0.02988 -0.04334,-0.0619 -0.06425,-0.09605 -0.01986,-0.035 -0.04335,-0.07812 -0.07052,-0.129341 l -0.0094,0.03458 c -0.03448,0.124644 -0.0538,0.19337 -0.05798,0.206176 l -0.141038,0.432837 z m 1.338273,-0.988613 h 0.333786 c 0.148349,0 0.255953,-0.02049 0.322812,-0.06147 0.06686,-0.04183 0.100294,-0.107996 0.100297,-0.198492 0,-0.05037 -0.01778,-0.08665 -0.05329,-0.10885 -0.03552,-0.02305 -0.09245,-0.03457 -0.170809,-0.03457 h -0.398034 z m 1.659522,0.988613 0.637796,-1.949056 h 1.027997 l -0.639368,1.949056 z m 3.956838,-0.05763 c -0.22148,0.03842 -0.43199,0.06702 -0.631529,0.0858 -0.198492,0.01964 -0.387063,0.02945 -0.565712,0.02945 -0.395943,0 -0.685849,-0.04994 -0.86972,-0.149829 -0.183869,-0.09989 -0.275802,-0.256973 -0.275802,-0.471259 -3e-6,-0.04439 0.0037,-0.09306 0.01097,-0.145989 0.0073,-0.05378 0.01828,-0.11269 0.0329,-0.176718 0.03343,-0.139159 0.07574,-0.266363 0.126933,-0.381615 0.05224,-0.116109 0.109693,-0.213006 0.172376,-0.290695 0.08671,-0.106716 0.177076,-0.19038 0.271103,-0.250995 0.09507,-0.06147 0.200583,-0.104154 0.316544,-0.12806 0.107607,-0.0222 0.223046,-0.03885 0.346322,-0.04994 0.123275,-0.01109 0.255953,-0.01663 0.398037,-0.01663 0.194317,0 0.3949,0.01024 0.601751,0.03073 0.207897,0.02049 0.423631,0.05165 0.647201,0.09348 l -0.192752,0.589073 c -0.177599,-0.01708 -0.333263,-0.02946 -0.46699,-0.03714 -0.133718,-0.0085 -0.252289,-0.01279 -0.355715,-0.01279 -0.161932,0 -0.29252,0.01067 -0.391771,0.03201 -0.09924,0.02049 -0.178119,0.05379 -0.236623,0.09989 -0.06477,0.04952 -0.121709,0.125499 -0.170813,0.227943 -0.0491,0.10245 -0.07365,0.198495 -0.07365,0.288135 -3e-6,0.08708 0.02769,0.15111 0.08305,0.192088 0.05641,0.04013 0.145734,0.06019 0.267968,0.06019 h 0.04074 c 0.01044,-9.33e-4 0.01983,-0.0018 0.02819,-0.0026 l 0.164544,-0.500712 h 1.010757 z m 0.120661,0.05763 1.422893,-1.949056 h 1.706534 l -0.01254,1.949056 h -0.991948 l 0.0031,-0.28301 h -0.799204 l -0.202149,0.28301 z m 1.628178,-0.765792 h 0.526535 l 0.0094,-0.723533 z m 3.430303,-0.542972 -0.426243,1.308764 h -1.024857 l 0.427812,-1.308764 h -0.655038 l 0.211555,-0.640292 h 2.297317 l -0.208419,0.640292 z m 0.468553,1.308764 0.637796,-1.949056 h 1.027997 l -0.639368,1.949056 z m 3.167036,-1.32669 c -0.07626,0 -0.143125,0.01195 -0.200583,0.03586 -0.05641,0.02305 -0.102903,0.05805 -0.139468,0.105007 -0.05119,0.06659 -0.09507,0.150683 -0.131635,0.252275 -0.03656,0.100742 -0.05485,0.189102 -0.05485,0.265085 -10e-6,0.05635 0.02819,0.09946 0.08462,0.129338 0.05746,0.02903 0.140514,0.04354 0.249163,0.04354 0.06791,0 0.127454,-0.0085 0.178646,-0.02563 0.05119,-0.01708 0.09455,-0.0427 0.130068,-0.07684 0.02924,-0.02817 0.05485,-0.06061 0.07678,-0.09732 0.02193,-0.03671 0.04335,-0.08281 0.06425,-0.138306 0.02404,-0.06317 0.04231,-0.119093 0.05485,-0.167757 0.01254,-0.04951 0.0188,-0.09177 0.0188,-0.126776 -1e-5,-0.06659 -0.02769,-0.116109 -0.08305,-0.148551 -0.05433,-0.03329 -0.136859,-0.04994 -0.247599,-0.04994 z m -1.552958,0.746584 c -6e-6,-0.04439 0.0031,-0.09092 0.0094,-0.139584 0.0063,-0.04866 0.01564,-0.09989 0.02819,-0.153672 0.03552,-0.14684 0.07992,-0.280022 0.133197,-0.399543 0.05328,-0.120375 0.11074,-0.217274 0.172376,-0.290694 0.08776,-0.103302 0.180214,-0.185684 0.277374,-0.247152 0.09716,-0.06147 0.204761,-0.105865 0.322814,-0.133183 0.105514,-0.02305 0.220433,-0.04012 0.344756,-0.05122 0.124323,-0.01111 0.263789,-0.01666 0.418407,-0.01666 0.231924,0 0.425197,0.01238 0.579814,0.03714 0.155662,0.02476 0.289906,0.06403 0.40273,0.117812 0.09194,0.04439 0.159843,0.108424 0.203722,0.19209 0.04388,0.08366 0.06582,0.190807 0.06582,0.321429 -6e-6,0.07427 -0.0073,0.151108 -0.02193,0.230504 -0.01356,0.0794 -0.03498,0.161782 -0.06425,0.247153 -0.04388,0.132327 -0.09873,0.25185 -0.164543,0.358567 -0.06477,0.105862 -0.14156,0.199773 -0.230359,0.281732 -0.11074,0.100737 -0.261176,0.173732 -0.45131,0.218978 -0.190142,0.04439 -0.450797,0.06659 -0.781965,0.06659 -0.454451,0 -0.775703,-0.04866 -0.963749,-0.145986 -0.187,-0.09733 -0.280501,-0.262096 -0.280501,-0.494309 z m 2.917869,0.580106 0.637799,-1.949056 h 1.132987 l 0.170729,0.842628 c 0.0031,0.01708 0.0093,0.05337 0.0188,0.108847 0.0094,0.05464 0.0219,0.128491 0.03761,0.221545 0.0188,-0.0794 0.04752,-0.17971 0.08619,-0.30094 0.0063,-0.02049 0.01097,-0.03543 0.01409,-0.04482 l 0.27267,-0.827259 h 0.991953 l -0.639364,1.949056 h -1.122018 l -0.206853,-0.747865 c -0.01044,-0.03842 -0.02295,-0.08495 -0.03761,-0.139584 -0.01359,-0.05549 -0.02769,-0.114397 -0.04231,-0.176719 -0.0188,0.09306 -0.04857,0.201052 -0.08932,0.323989 l 1.15e-4,0.0038 -0.247593,0.736337 z M 13.166298,17.416273 h 0.308163 c 0.155361,0 0.270859,-0.02391 0.346493,-0.07172 0.07666,-0.04866 0.11499,-0.121655 0.11499,-0.21898 0,-0.05208 -0.01992,-0.0905 -0.05979,-0.115253 -0.03986,-0.02476 -0.1017,-0.03714 -0.185513,-0.03714 h -0.383289 z m -1.286319,0.918182 0.623993,-1.94906 h 1.821392 c 0.207487,0 0.360804,0.03842 0.459949,0.115255 0.09915,0.07684 0.148716,0.195931 0.148716,0.357286 0,0.111835 -0.01533,0.226235 -0.046,0.343197 -0.02964,0.116107 -0.0695,0.215138 -0.119587,0.297094 -0.09097,0.150257 -0.203909,0.255267 -0.338826,0.315025 -0.133894,0.05891 -0.332185,0.08836 -0.594866,0.08836 h -0.821772 l -0.137984,0.43284 z m 3.680184,-1.94906 h 0.991952 l -0.38942,1.212719 c -0.0092,0.02817 -0.01636,0.05251 -0.02147,0.07299 -0.0041,0.02049 -0.0061,0.03714 -0.0061,0.04994 0,0.0461 0.01583,0.08068 0.04753,0.103728 0.03271,0.02305 0.08126,0.03458 0.14565,0.03458 0.08279,0 0.149738,-0.02006 0.200843,-0.06019 0.0511,-0.04012 0.08995,-0.103726 0.11652,-0.190806 l 0.389423,-1.222964 h 0.996552 l -0.397089,1.228086 c -0.05622,0.179283 -0.10732,0.306061 -0.153316,0.380335 -0.046,0.07342 -0.102209,0.132756 -0.168647,0.178002 -0.112431,0.07428 -0.25757,0.128912 -0.435417,0.163915 -0.176823,0.03586 -0.399131,0.05379 -0.666922,0.05379 -0.39249,0 -0.676123,-0.03628 -0.850903,-0.10885 -0.173758,-0.07342 -0.260636,-0.190809 -0.260636,-0.352164 0,-0.04098 0.0051,-0.0858 0.01533,-0.13446 0.01022,-0.04952 0.02912,-0.116109 0.05673,-0.199774 z m 3.559992,0.818299 c -0.01738,0.07257 -0.03474,0.140011 -0.05213,0.202332 -0.01738,0.06232 -0.03423,0.119095 -0.05059,0.170318 l -0.242241,0.758111 h -0.947492 l 0.623996,-1.94906 h 1.300119 l 0.02912,0.71713 c 9.34e-4,0.01879 0.0016,0.03885 0.0016,0.06019 9.33e-4,0.02049 0.0016,0.04995 0.0016,0.08836 4e-6,0.02903 -6.22e-4,0.05848 -0.0016,0.08836 -9.33e-4,0.02903 -0.0031,0.05976 -0.0061,0.0922 0.01636,-0.02988 0.03629,-0.0636 0.05979,-0.101166 0.02351,-0.03842 0.05417,-0.08495 0.09199,-0.139583 l 0.55807,-0.805493 h 1.335379 l -0.62553,1.94906 h -0.944422 l 0.254503,-0.802931 c 0.0031,-0.01195 0.01174,-0.03756 0.02605,-0.07683 0.01431,-0.03927 0.04293,-0.117389 0.08586,-0.234349 l -0.05059,0.07044 c -0.07972,0.111837 -0.136962,0.19038 -0.171713,0.23563 l -0.619397,0.80805 h -0.539748 l -0.08432,-0.765794 c -0.0041,-0.03073 -0.0087,-0.07171 -0.01378,-0.122937 -0.0041,-0.05122 -0.01022,-0.1319 -0.0184,-0.24203 z m 3.712547,0.212579 h 0.308164 c 0.155361,0 0.270859,-0.02391 0.346493,-0.07172 0.07666,-0.04866 0.114987,-0.121655 0.114987,-0.21898 3e-6,-0.05208 -0.01992,-0.0905 -0.05979,-0.115253 -0.03986,-0.02476 -0.1017,-0.03714 -0.185512,-0.03714 h -0.383291 z m -1.286318,0.918182 0.623993,-1.94906 h 1.821391 c 0.207488,0 0.360804,0.03842 0.459947,0.115255 0.09915,0.07684 0.148716,0.195931 0.148716,0.357286 0,0.111835 -0.01534,0.226235 -0.04599,0.343197 -0.02964,0.116107 -0.0695,0.215138 -0.119587,0.297094 -0.09097,0.150257 -0.20391,0.255267 -0.338826,0.315025 -0.133898,0.05891 -0.332186,0.08836 -0.594866,0.08836 H 22.67939 l -0.137984,0.43284 z m -7.498353,-3.46057 v -4.06054 h 2.086293 l 3e-6,1.42199 h 1.01113 v -1.42199 h 2.088963 v 4.06054 h -2.08896 v -1.256579 h -1.011133 v 1.256579 z m 8.609133,-1.088503 c 0.206317,0 0.367278,-0.0747 0.482887,-0.224103 0.11561,-0.149403 0.173414,-0.358389 0.173414,-0.626956 0,-0.281018 -0.05514,-0.491782 -0.16541,-0.63229 -0.108493,-0.142289 -0.272125,-0.213432 -0.490891,-0.213432 -0.218768,0 -0.38329,0.07114 -0.493562,0.213432 -0.108494,0.140508 -0.162742,0.351272 -0.162742,0.63229 0,0.270347 0.05692,0.480221 0.170747,0.629622 0.115609,0.147625 0.277463,0.221437 0.485557,0.221437 z m 0,1.213894 c -0.939101,0 -1.635423,-0.176082 -2.088966,-0.528245 -0.453544,-0.353941 -0.680314,-0.897303 -0.680314,-1.630084 0,-0.729225 0.225881,-1.26992 0.677646,-1.622082 0.453544,-0.353942 1.150755,-0.530912 2.091634,-0.530912 0.940879,0 1.638087,0.17697 2.091631,0.530912 0.45532,0.352162 0.68298,0.892857 0.68298,1.622082 0,0.732781 -0.22766,1.276143 -0.68298,1.630084 -0.453544,0.352163 -1.150752,0.528245 -2.091631,0.528245 z m 7.859448,-4.119233 v 1.21923 c -0.387732,-0.04802 -0.707879,-0.08182 -0.960444,-0.101382 -0.250778,-0.02134 -0.474883,-0.03201 -0.672306,-0.03201 -0.325481,0 -0.538913,0.01422 -0.640294,0.04268 -0.101382,0.02667 -0.152072,0.07648 -0.152072,0.149404 0,0.120944 0.200093,0.181415 0.600277,0.181415 0.149402,0 0.270348,0.0019 0.362836,0.0053 0.579821,0.01067 0.997792,0.105825 1.253911,0.285463 0.256118,0.179639 0.384176,0.465104 0.384176,0.856395 -3e-6,0.506899 -0.20632,0.888408 -0.618955,1.144527 -0.412632,0.256118 -1.026247,0.384177 -1.840845,0.384177 -0.350384,0 -0.704324,-0.01601 -1.061823,-0.04802 -0.35572,-0.03202 -0.714107,-0.07915 -1.075163,-0.141399 v -1.141858 c 0.391294,0.06225 0.756794,0.109384 1.096507,0.141399 0.339711,0.03201 0.646518,0.04802 0.920425,0.04802 0.168966,0 0.283685,-0.01156 0.344157,-0.03468 0.06225,-0.0249 0.09338,-0.06759 0.09338,-0.12806 0,-0.05514 -0.02044,-0.09515 -0.06136,-0.120054 -0.04091,-0.02668 -0.110271,-0.04358 -0.208094,-0.05069 -0.04623,-0.0017 -0.184075,-0.0053 -0.413526,-0.01066 -0.229436,-0.0071 -0.420634,-0.01956 -0.573597,-0.03735 -0.474886,-0.05869 -0.819933,-0.186752 -1.035142,-0.384178 -0.213432,-0.197423 -0.320148,-0.482887 -0.320148,-0.856391 0,-0.537136 0.208983,-0.932875 0.626954,-1.187214 0.419748,-0.254338 1.074275,-0.381508 1.963572,-0.381508 0.313035,0 0.63585,0.01688 0.968448,0.05069 0.334377,0.03201 0.67409,0.08093 1.019136,0.146734 z m 0.856224,3.993842 3e-6,-4.06054 h 4.535427 l -3e-6,1.323276 h -2.491815 v 0.376174 h 2.491818 l -3e-6,0.928428 h -2.491818 l 3e-6,0.362835 h 2.491818 v 1.069827 z m 8.705009,0 -1.163206,-4.06054 h 2.112976 l 0.301479,1.400645 c 0.01608,0.07648 0.03474,0.179639 0.05603,0.309477 0.02134,0.129838 0.04268,0.273904 0.06403,0.432199 0.05158,-0.295247 0.08537,-0.488225 0.101382,-0.578933 0.01601,-0.09249 0.02757,-0.150291 0.03468,-0.173415 l 0.312143,-1.389973 h 1.381972 l 0.288128,1.381969 c 0.0072,0.03201 0.01697,0.07826 0.02933,0.138733 0.05509,0.263232 0.09156,0.470439 0.109397,0.621619 0.02491,-0.144066 0.05158,-0.299693 0.08004,-0.466882 0.02847,-0.168964 0.04535,-0.265009 0.05069,-0.288133 l 0.298803,-1.387306 h 2.048946 l -1.157867,4.06054 h -1.966239 l -0.338823,-1.229902 c -0.03201,-0.119166 -0.06225,-0.241889 -0.09071,-0.36817 -0.02844,-0.128058 -0.05517,-0.260564 -0.08017,-0.397516 -0.03735,0.199203 -0.07025,0.364613 -0.09871,0.49623 -0.02667,0.129837 -0.04802,0.223214 -0.06403,0.280129 l -0.344154,1.219229 z m 9.126703,-1.088503 c 0.206317,0 0.367281,-0.0747 0.482887,-0.224103 0.115613,-0.149403 0.173418,-0.358389 0.173418,-0.626956 -3e-6,-0.281018 -0.05514,-0.491782 -0.16541,-0.63229 -0.108494,-0.142289 -0.272126,-0.213432 -0.490895,-0.213432 -0.218768,0 -0.38329,0.07114 -0.493562,0.213432 -0.108493,0.140508 -0.162742,0.351272 -0.162739,0.63229 0,0.270347 0.05691,0.480221 0.170741,0.629622 0.115609,0.147625 0.277463,0.221437 0.48556,0.221437 z m -3e-6,1.213894 c -0.939098,0 -1.635417,-0.176082 -2.088959,-0.528245 -0.453544,-0.353941 -0.680318,-0.897303 -0.680315,-1.630084 -3e-6,-0.729225 0.225881,-1.26992 0.677647,-1.622082 0.453544,-0.353942 1.150751,-0.530912 2.091627,-0.530912 0.94088,0 1.63809,0.17697 2.091634,0.530912 0.455321,0.352162 0.682984,0.892857 0.682984,1.622082 0,0.732781 -0.227663,1.276143 -0.682984,1.630084 -0.453544,0.352163 -1.150754,0.528245 -2.091634,0.528245 z m 5.498365,-2.24637 h 0.400184 c 0.275685,0 0.47133,-0.03379 0.586939,-0.10138 0.115611,-0.06759 0.173415,-0.181417 0.173415,-0.341492 0,-0.135173 -0.0498,-0.22944 -0.149408,-0.282796 -0.0996,-0.05513 -0.289016,-0.0827 -0.568257,-0.0827 H 54.70291 Z m -2.07562,2.120979 v -4.06054 h 3.911131 c 0.448206,0 0.78703,0.09693 1.016472,0.2908 0.229439,0.193868 0.344156,0.479331 0.344159,0.856395 0,0.359277 -0.105827,0.642075 -0.317481,0.848392 -0.211652,0.206316 -0.528243,0.333486 -0.949772,0.381508 l 1.427328,1.683445 h -2.40911 l -0.733675,-0.944436 c -0.03023,-0.04091 -0.0667,-0.09249 -0.109382,-0.15474 -0.04269,-0.06225 -0.08626,-0.128948 -0.130726,-0.200091 0.0089,0.101381 0.01512,0.202761 0.01868,0.30414 0.0053,0.101381 0.008,0.201872 0.008,0.301474 v 0.693653 z m 5.909216,0 v -4.06054 h 2.086297 v 2.61187 h 1.734131 l 4e-6,1.44867 z m 6.506832,-1.245909 c 0.01778,0.0017 0.03823,0.0035 0.06136,0.0053 h 0.101379 c 0.352165,0 0.620732,-0.06314 0.805703,-0.189422 0.186752,-0.126281 0.280129,-0.308587 0.280129,-0.546918 3e-6,-0.243668 -0.08003,-0.418859 -0.240108,-0.525576 -0.160076,-0.108493 -0.424196,-0.162742 -0.792364,-0.162742 -0.05869,0 -0.10316,9.34e-4 -0.133396,0.0028 -0.03023,0 -0.05781,9.33e-4 -0.0827,0.0028 z m -2.088963,1.245909 v -4.06054 h 3.121435 c 0.768354,0 1.349067,0.160964 1.742136,0.482889 0.393072,0.321926 0.58961,0.796813 0.589607,1.424657 3e-6,0.259674 -0.03735,0.502453 -0.112051,0.728336 -0.0747,0.225883 -0.184973,0.429532 -0.330822,0.610949 -0.234774,0.286354 -0.524686,0.49356 -0.869733,0.621619 -0.34505,0.12806 -0.799482,0.19209 -1.363298,0.19209 z" /></g><path
       style="fill:#ff00ff;stroke-width:0.434999;stroke-linejoin:round"
       d="m 195.2625,-21.166666 c 0.35277,0.705555 0.35277,2.469444 1.05833,2.116666 0.70556,-0.352777 -0.70556,-1.411111 -1.05833,-2.116666 z"
       id="path4" /></g></svg>
